{"glyphs":{"0":{"ha":772,"x_min":0,"x_max":0,"o":"m 590 475 b 386 83 590 231 526 83 b 182 475 246 83 182 231 b 386 867 182 719 246 867 b 590 475 526 867 590 719 z m 721 475 b 386 976 721 678 667 976 b 51 475 106 976 51 678 b 386 -26 51 272 106 -26 b 721 475 667 -26 721 272 z "},"1":{"ha":772,"x_min":0,"x_max":0,"o":"m 499 976 b 403 976 499 976 403 976 b 140 790 364 817 299 801 b 140 693 140 790 140 693 b 368 693 140 693 368 693 b 368 0 368 693 368 0 b 499 0 368 0 499 0 b 499 976 499 0 499 976 z "},"2":{"ha":772,"x_min":0,"x_max":0,"o":"m 183 626 b 381 867 188 694 196 867 b 574 690 524 867 574 768 b 394 463 574 563 499 522 b 265 388 394 463 265 388 b 36 0 135 311 43 203 b 704 0 36 0 704 0 b 704 115 704 0 704 115 b 174 115 704 115 174 115 b 342 303 179 153 208 229 b 443 358 342 303 443 358 b 704 685 589 436 704 510 b 399 976 704 867 568 976 b 61 626 293 976 61 944 b 183 626 61 626 183 626 z "},"3":{"ha":772,"x_min":0,"x_max":0,"o":"m 311 450 b 367 451 329 450 349 451 b 594 272 450 451 594 436 b 382 83 594 160 507 83 b 174 299 200 83 178 207 b 47 299 174 299 47 299 b 193 17 56 186 85 74 b 374 -26 240 -8 301 -26 b 725 288 622 -26 725 128 b 563 515 725 418 657 485 b 563 518 563 515 563 518 b 688 719 615 535 688 594 b 386 976 688 868 575 976 b 71 657 129 976 71 800 b 190 657 71 657 190 657 b 381 867 196 725 207 867 b 561 713 526 867 561 771 b 375 553 561 590 469 553 b 311 556 354 553 332 554 b 311 450 311 556 311 450 z "},"4":{"ha":772,"x_min":0,"x_max":0,"o":"m 726 238 b 726 343 726 238 726 343 b 583 343 726 343 583 343 b 583 976 583 343 583 976 b 482 976 583 976 482 976 b 35 357 482 976 35 357 b 35 238 35 357 35 238 b 461 238 35 238 461 238 b 461 0 461 238 461 0 b 583 0 461 0 583 0 b 583 238 583 0 583 238 b 726 238 583 238 726 238 z m 458 786 b 461 786 458 786 461 786 b 461 343 461 786 461 343 b 147 343 461 343 147 343 b 458 786 147 343 458 786 z "},"5":{"ha":772,"x_min":0,"x_max":0,"o":"m 246 836 b 660 836 246 836 660 836 b 660 956 660 836 660 956 b 154 956 660 956 154 956 b 81 432 154 956 81 432 b 186 426 81 432 186 426 b 367 519 232 486 296 519 b 583 303 488 519 583 443 b 378 79 583 181 504 79 b 171 243 268 79 183 129 b 44 243 171 243 44 243 b 360 -26 68 25 232 -26 b 714 317 665 -26 714 208 b 393 629 714 518 551 629 b 204 568 306 629 246 600 b 246 836 204 568 246 836 z "},"6":{"ha":772,"x_min":0,"x_max":0,"o":"m 699 717 b 414 976 686 915 526 976 b 53 454 122 976 53 668 b 128 115 53 326 69 207 b 379 -26 197 7 304 -26 b 626 68 517 -26 575 11 b 719 313 693 140 719 213 b 414 622 719 546 533 622 b 182 503 281 622 213 556 b 179 506 182 503 179 506 b 411 867 179 608 219 867 b 579 717 517 867 564 803 b 699 717 579 717 699 717 z m 196 300 b 396 513 196 415 261 513 b 593 307 547 513 593 393 b 401 83 593 175 518 83 b 196 300 258 83 196 196 z "},"7":{"ha":772,"x_min":0,"x_max":0,"o":"m 51 836 b 589 836 51 836 589 836 b 190 0 401 618 224 268 b 325 0 190 0 325 0 b 726 849 396 436 629 747 b 726 956 726 849 726 956 b 51 956 726 956 51 956 b 51 836 51 956 51 836 z "},"8":{"ha":772,"x_min":0,"x_max":0,"o":"m 683 725 b 382 976 683 839 599 976 b 86 708 149 976 86 810 b 218 518 86 617 135 550 b 53 281 115 476 53 400 b 153 49 53 233 53 128 b 388 -26 231 -12 333 -26 b 718 282 618 -26 718 125 b 558 519 718 356 690 464 b 683 725 601 542 683 585 z m 385 458 b 588 268 496 458 588 400 b 392 83 588 115 481 83 b 183 278 222 83 183 200 b 385 458 183 368 247 458 z m 383 564 b 213 714 294 564 213 621 b 375 867 213 776 244 867 b 557 721 518 867 557 781 b 383 564 557 632 489 564 z "},"9":{"ha":772,"x_min":0,"x_max":0,"o":"m 365 326 b 589 443 456 326 553 368 b 592 440 589 443 592 440 b 357 75 561 188 490 75 b 192 235 257 75 199 136 b 69 235 192 235 69 235 b 360 -26 69 140 131 -26 b 714 524 696 -26 714 419 b 372 976 714 682 683 976 b 58 642 167 976 58 819 b 365 326 58 447 185 326 z m 383 436 b 185 647 301 436 185 460 b 374 867 185 778 260 867 b 571 658 514 867 571 769 b 383 436 571 465 447 436 z "},"\u0000":{"ha":635,"x_min":0,"x_max":0,"o":"m 28 938 b 607 938 28 938 607 938 b 607 0 607 938 607 0 b 28 0 607 0 28 0 b 28 938 28 0 28 938 z m 94 67 b 539 67 94 67 539 67 b 539 871 539 67 539 871 b 94 871 539 871 94 871 b 94 67 94 871 94 67 z "}," ":{"ha":386,"x_min":0,"x_max":0,"o":""},"!":{"ha":386,"x_min":0,"x_max":0,"o":"m 260 142 b 125 142 260 142 125 142 b 125 0 125 142 125 0 b 260 0 125 0 260 0 b 260 142 260 0 260 142 z m 226 238 b 260 668 226 238 260 668 b 260 997 260 668 260 997 b 125 997 260 997 125 997 b 125 668 125 997 125 668 b 158 238 125 668 158 238 b 226 238 158 238 226 238 z "},"\"":{"ha":493,"x_min":0,"x_max":0,"o":"m 97 643 b 199 643 97 643 199 643 b 199 997 199 643 199 997 b 97 997 199 997 97 997 b 97 643 97 997 97 643 z m 294 643 b 396 643 294 643 396 643 b 396 997 396 643 396 997 b 294 997 396 997 294 997 b 294 643 294 997 294 643 z "},"#":{"ha":772,"x_min":0,"x_max":0,"o":"m 539 292 b 682 292 539 292 682 292 b 694 379 682 292 694 379 b 551 379 694 379 551 379 b 579 576 551 379 579 576 b 722 576 579 576 722 576 b 735 664 722 576 735 664 b 592 664 735 664 592 664 b 632 956 592 664 632 956 b 539 956 632 956 539 956 b 499 664 539 956 499 664 b 326 664 499 664 326 664 b 367 956 326 664 367 956 b 274 956 367 956 274 956 b 233 664 274 956 233 664 b 90 664 233 664 90 664 b 78 576 90 664 78 576 b 221 576 78 576 221 576 b 194 379 221 576 194 379 b 51 379 194 379 51 379 b 39 292 51 379 39 292 b 182 292 39 292 182 292 b 142 0 182 292 142 0 b 233 0 142 0 233 0 b 274 292 233 0 274 292 b 447 292 274 292 447 292 b 407 0 447 292 407 0 b 499 0 407 0 499 0 b 539 292 499 0 539 292 z m 486 576 b 460 379 486 576 460 379 b 286 379 460 379 286 379 b 314 576 286 379 314 576 b 486 576 314 576 486 576 z "},"$":{"ha":772,"x_min":0,"x_max":0,"o":"m 351 568 b 186 725 268 582 186 626 b 351 886 186 810 244 886 b 351 568 351 886 351 568 z m 417 428 b 492 404 417 428 492 404 b 600 250 550 386 600 328 b 417 75 600 160 540 75 b 417 428 417 75 417 428 z m 699 724 b 417 988 690 947 504 981 b 417 1076 417 988 417 1076 b 351 1076 417 1076 351 1076 b 351 988 351 1076 351 988 b 64 717 186 988 64 867 b 351 443 64 525 210 476 b 351 75 351 443 351 75 b 167 296 213 97 175 147 b 44 296 167 296 44 296 b 351 -26 44 56 179 -17 b 351 -160 351 -26 351 -160 b 417 -160 351 -160 417 -160 b 417 -26 417 -160 417 -26 b 722 272 531 -26 722 36 b 417 554 722 465 607 499 b 417 886 417 554 417 886 b 581 724 544 863 571 799 b 699 724 581 724 699 724 z "},"%":{"ha":1235,"x_min":0,"x_max":0,"o":"m 54 731 b 292 493 54 597 161 493 b 528 731 422 493 528 600 b 292 965 528 861 421 965 b 54 731 161 965 54 863 z m 151 731 b 292 868 151 806 213 868 b 431 731 368 868 431 808 b 290 590 431 654 371 590 b 151 731 217 590 151 644 z m 707 228 b 944 -10 707 94 814 -10 b 1181 228 1075 -10 1181 97 b 944 463 1181 358 1074 463 b 707 228 814 463 707 360 z m 804 228 b 944 365 804 303 865 365 b 1083 228 1021 365 1083 306 b 943 88 1083 151 1024 88 b 804 228 869 88 804 142 z m 929 976 b 853 976 929 976 853 976 b 304 -26 853 976 304 -26 b 379 -26 304 -26 379 -26 b 929 976 379 -26 929 976 z "},"&":{"ha":926,"x_min":0,"x_max":0,"o":"m 579 196 b 363 85 526 124 451 85 b 183 250 307 85 183 125 b 354 471 183 357 247 403 b 579 196 354 471 579 196 z m 397 610 b 299 783 360 647 299 718 b 415 892 299 817 313 892 b 522 782 456 892 522 871 b 397 610 522 697 450 646 z m 718 215 b 799 469 769 310 793 401 b 683 469 799 469 683 469 b 643 314 671 396 665 375 b 461 531 643 314 461 531 b 640 792 535 581 640 651 b 417 997 640 892 574 997 b 181 775 264 997 181 890 b 286 554 181 689 214 643 b 61 240 101 450 61 376 b 354 -21 61 164 106 -21 b 644 114 500 -21 576 36 b 738 0 644 114 738 0 b 896 0 738 0 896 0 b 718 215 896 0 718 215 z "},"'":{"ha":265,"x_min":0,"x_max":0,"o":"m 82 643 b 183 643 82 643 183 643 b 183 997 183 643 183 997 b 82 997 183 997 82 997 b 82 643 82 997 82 643 z "},"(":{"ha":463,"x_min":0,"x_max":0,"o":"m 329 1018 b 94 363 179 804 94 607 b 333 -287 94 103 189 -71 b 415 -287 333 -287 415 -287 b 225 329 304 -69 225 100 b 414 1018 225 663 296 796 b 329 1018 414 1018 329 1018 z "},")":{"ha":463,"x_min":0,"x_max":0,"o":"m 133 -287 b 368 368 283 -74 368 124 b 129 1018 368 628 274 801 b 47 1018 129 1018 47 1018 b 238 401 158 800 238 631 b 49 -287 238 68 167 -65 b 133 -287 49 -287 133 -287 z "},"*":{"ha":540,"x_min":0,"x_max":0,"o":"m 54 821 b 204 774 54 821 204 774 b 111 646 204 774 111 646 b 179 599 111 646 179 599 b 269 729 179 599 269 729 b 360 599 269 729 360 599 b 428 646 360 599 428 646 b 335 774 428 646 335 774 b 485 821 335 774 485 821 b 457 897 485 821 457 897 b 311 844 457 897 311 844 b 311 997 311 844 311 997 b 228 997 311 997 228 997 b 228 844 228 997 228 844 b 82 897 228 844 82 897 b 54 821 82 897 54 821 z "},"+":{"ha":811,"x_min":0,"x_max":0,"o":"m 356 401 b 54 401 356 401 54 401 b 54 300 54 401 54 300 b 356 300 54 300 356 300 b 356 0 356 300 356 0 b 457 0 356 0 457 0 b 457 300 457 0 457 300 b 757 300 457 300 757 300 b 757 401 757 300 757 401 b 457 401 757 401 457 401 b 457 701 457 401 457 701 b 356 701 457 701 356 701 b 356 401 356 701 356 401 z "},",":{"ha":386,"x_min":0,"x_max":0,"o":"m 121 0 b 194 0 121 0 194 0 b 121 -140 194 -65 179 -135 b 121 -204 121 -140 121 -204 b 265 11 149 -200 265 -178 b 265 147 265 11 265 147 b 121 147 265 147 121 147 b 121 0 121 147 121 0 z "},"-":{"ha":463,"x_min":0,"x_max":0,"o":"m 401 447 b 61 447 401 447 61 447 b 61 322 61 447 61 322 b 401 322 61 322 401 322 b 401 447 401 322 401 447 z "},".":{"ha":386,"x_min":0,"x_max":0,"o":"m 265 147 b 121 147 265 147 121 147 b 121 0 121 147 121 0 b 265 0 121 0 265 0 b 265 147 265 0 265 147 z "},"/":{"ha":386,"x_min":0,"x_max":0,"o":"m 410 1024 b 318 1024 410 1024 318 1024 b -24 -26 318 1024 -24 -26 b 69 -26 -24 -26 69 -26 b 410 1024 69 -26 410 1024 z "},":":{"ha":386,"x_min":0,"x_max":0,"o":"m 265 147 b 121 147 265 147 121 147 b 121 0 121 147 121 0 b 265 0 121 0 265 0 b 265 147 265 0 265 147 z m 265 717 b 121 717 265 717 121 717 b 121 569 121 717 121 569 b 265 569 121 569 265 569 b 265 717 265 569 265 717 z "},";":{"ha":386,"x_min":0,"x_max":0,"o":"m 121 0 b 194 0 121 0 194 0 b 121 -140 194 -65 179 -135 b 121 -204 121 -140 121 -204 b 265 11 149 -200 265 -178 b 265 147 265 11 265 147 b 121 147 265 147 121 147 b 121 0 121 147 121 0 z m 265 569 b 265 717 265 569 265 717 b 121 717 265 717 121 717 b 121 569 121 717 121 569 b 265 569 121 569 265 569 z "},"<":{"ha":811,"x_min":0,"x_max":0,"o":"m 744 126 b 203 351 744 126 203 351 b 744 576 203 351 744 576 b 744 688 744 576 744 688 b 67 400 744 688 67 400 b 67 303 67 400 67 303 b 744 15 67 303 744 15 b 744 126 744 15 744 126 z "},"=":{"ha":811,"x_min":0,"x_max":0,"o":"m 757 542 b 54 542 757 542 54 542 b 54 440 54 542 54 440 b 757 440 54 440 757 440 b 757 542 757 440 757 542 z m 757 261 b 54 261 757 261 54 261 b 54 160 54 261 54 160 b 757 160 54 160 757 160 b 757 261 757 160 757 261 z "},">":{"ha":811,"x_min":0,"x_max":0,"o":"m 67 576 b 608 351 67 576 608 351 b 67 126 608 351 67 126 b 67 15 67 126 67 15 b 744 303 67 15 744 303 b 744 400 744 303 744 400 b 67 688 744 400 67 688 b 67 576 67 688 67 576 z "},"?":{"ha":772,"x_min":0,"x_max":0,"o":"m 200 685 b 385 904 200 744 207 904 b 553 746 519 904 553 804 b 442 553 553 667 533 647 b 310 254 344 453 310 413 b 432 254 310 254 432 254 b 553 508 429 392 465 424 b 683 738 647 599 683 646 b 389 1010 683 915 544 1010 b 188 946 315 1010 243 989 b 78 685 86 868 82 779 b 200 685 78 685 200 685 z m 442 142 b 307 142 442 142 307 142 b 307 0 307 142 307 0 b 442 0 307 0 442 0 b 442 142 442 0 442 142 z "},"@":{"ha":1410,"x_min":0,"x_max":0,"o":"m 849 567 b 642 289 849 456 760 289 b 525 424 572 289 525 344 b 735 694 525 539 611 694 b 849 567 796 694 849 635 z m 892 686 b 732 794 856 764 799 794 b 411 411 539 794 411 599 b 615 189 411 290 496 189 b 782 275 681 189 742 232 b 785 276 782 275 785 276 b 874 189 788 217 826 189 b 1206 590 997 189 1206 339 b 728 1024 1206 843 985 1024 b 204 501 442 1024 204 792 b 735 -26 204 206 438 -26 b 1168 218 913 -26 1078 67 b 1075 218 1168 218 1075 218 b 738 60 996 121 867 60 b 306 493 494 60 306 247 b 728 938 306 739 481 938 b 1115 579 938 938 1115 801 b 918 279 1115 431 1013 279 b 889 319 896 279 889 293 b 1014 772 889 357 961 578 b 919 772 1014 772 919 772 b 892 686 919 772 892 686 z "},"A":{"ha":926,"x_min":0,"x_max":0,"o":"m 663 290 b 761 0 663 290 761 0 b 908 0 761 0 908 0 b 547 997 908 0 547 997 b 394 997 547 997 394 997 b 19 0 394 997 19 0 b 158 0 19 0 158 0 b 263 290 158 0 263 290 b 663 290 263 290 663 290 z m 304 410 b 464 849 304 410 464 849 b 467 849 464 849 467 849 b 614 410 467 849 614 410 b 304 410 614 410 304 410 z "},"B":{"ha":926,"x_min":0,"x_max":0,"o":"m 238 882 b 482 882 238 882 482 882 b 689 736 632 882 689 829 b 481 575 689 614 610 575 b 238 575 481 575 238 575 b 238 882 238 575 238 882 z m 103 0 b 532 0 103 0 532 0 b 871 294 753 0 871 135 b 690 538 871 465 756 511 b 824 746 800 589 824 681 b 542 997 824 882 728 997 b 103 997 542 997 103 997 b 103 0 103 997 103 0 z m 238 465 b 503 465 238 465 503 465 b 736 297 613 465 736 438 b 525 115 736 186 665 115 b 238 115 525 115 238 115 b 238 465 238 115 238 465 z "},"C":{"ha":1003,"x_min":0,"x_max":0,"o":"m 936 697 b 526 1024 917 864 783 1024 b 61 504 236 1024 61 811 b 510 -26 61 121 283 -26 b 946 367 585 -26 890 -10 b 815 367 946 367 815 367 b 531 93 769 135 618 93 b 200 508 283 93 200 274 b 526 904 200 771 346 904 b 806 697 622 904 768 872 b 936 697 806 697 936 697 z "},"D":{"ha":1003,"x_min":0,"x_max":0,"o":"m 113 0 b 511 0 113 0 511 0 b 936 513 839 0 936 289 b 517 997 936 800 776 997 b 113 997 517 997 113 997 b 113 0 113 997 113 0 z m 247 882 b 499 882 247 882 499 882 b 797 504 682 882 797 756 b 508 115 797 253 683 115 b 247 115 508 115 247 115 b 247 882 247 115 247 882 z "},"E":{"ha":926,"x_min":0,"x_max":0,"o":"m 856 119 b 254 119 856 119 254 119 b 254 453 254 119 254 453 b 800 453 254 453 800 453 b 800 572 800 453 800 572 b 254 572 800 572 254 572 b 254 878 254 572 254 878 b 846 878 254 878 846 878 b 846 997 846 878 846 997 b 119 997 846 997 119 997 b 119 0 119 997 119 0 b 856 0 119 0 856 0 b 856 119 856 0 856 119 z "},"F":{"ha":849,"x_min":0,"x_max":0,"o":"m 254 453 b 743 453 254 453 743 453 b 743 572 743 453 743 572 b 254 572 743 572 254 572 b 254 878 254 572 254 878 b 810 878 254 878 810 878 b 810 997 810 878 810 997 b 119 997 810 997 119 997 b 119 0 119 997 119 0 b 254 0 119 0 254 0 b 254 453 254 0 254 453 z "},"G":{"ha":1081,"x_min":0,"x_max":0,"o":"m 540 418 b 851 418 540 418 851 418 b 742 153 851 311 829 222 b 538 89 668 94 588 89 b 206 500 272 89 206 297 b 532 904 206 761 353 904 b 831 694 642 904 788 868 b 961 694 831 694 961 694 b 539 1024 932 918 725 1024 b 67 507 214 1024 67 750 b 224 86 67 401 71 231 b 529 -26 275 36 358 -26 b 858 129 665 -26 790 35 b 890 0 858 129 890 0 b 978 0 890 0 978 0 b 978 533 978 0 978 533 b 540 533 978 533 540 533 b 540 418 540 533 540 418 z "},"H":{"ha":1003,"x_min":0,"x_max":0,"o":"m 763 585 b 242 585 763 585 242 585 b 242 997 242 585 242 997 b 107 997 242 997 107 997 b 107 0 107 997 107 0 b 242 0 107 0 242 0 b 242 465 242 0 242 465 b 763 465 242 465 763 465 b 763 0 763 465 763 0 b 897 0 763 0 897 0 b 897 997 897 0 897 997 b 763 997 897 997 763 997 b 763 585 763 997 763 585 z "},"I":{"ha":386,"x_min":0,"x_max":0,"o":"m 261 997 b 126 997 261 997 126 997 b 25 997 126 997 25 997 b 25 872 25 997 25 872 b 126 872 25 872 126 872 b 126 125 126 872 126 125 b 25 125 126 125 25 125 b 25 0 25 125 25 0 b 126 0 25 0 126 0 b 261 0 126 0 261 0 b 365 0 261 0 365 0 b 365 125 365 0 365 125 b 261 125 365 125 261 125 b 261 872 261 125 261 872 b 365 872 261 872 365 872 b 365 997 365 872 365 997 b 261 997 365 997 261 997 z "},"J":{"ha":694,"x_min":0,"x_max":0,"o":"m 24 321 b 24 222 24 321 24 222 b 307 -26 24 129 75 -26 b 594 269 442 -26 594 36 b 594 872 594 269 594 872 b 686 872 594 872 686 872 b 686 997 686 872 686 997 b 594 997 686 997 594 997 b 460 997 594 997 460 997 b 346 997 460 997 346 997 b 346 872 346 997 346 872 b 460 872 346 872 460 872 b 460 261 460 872 460 261 b 300 89 460 164 425 89 b 150 251 207 89 150 132 b 150 321 150 251 150 321 b 24 321 150 321 24 321 z "},"K":{"ha":926,"x_min":0,"x_max":0,"o":"m 240 350 b 397 500 240 350 397 500 b 746 0 397 500 746 0 b 921 0 746 0 921 0 b 494 594 921 0 494 594 b 910 997 494 594 910 997 b 724 997 910 997 724 997 b 240 514 724 997 240 514 b 240 997 240 514 240 997 b 106 997 240 997 106 997 b 106 0 106 997 106 0 b 240 0 106 0 240 0 b 240 350 240 0 240 350 z "},"L":{"ha":772,"x_min":0,"x_max":0,"o":"m 240 997 b 106 997 240 997 106 997 b 106 0 106 997 106 0 b 746 0 106 0 746 0 b 746 119 746 0 746 119 b 240 119 746 119 240 119 b 240 997 240 119 240 997 z "},"M":{"ha":1157,"x_min":0,"x_max":0,"o":"m 1057 0 b 1057 997 1057 0 1057 997 b 865 997 1057 997 865 997 b 582 154 865 997 582 154 b 579 154 582 154 579 154 b 294 997 579 154 294 997 b 101 997 294 997 101 997 b 101 0 101 997 101 0 b 232 0 101 0 232 0 b 232 589 232 0 232 589 b 229 836 232 618 229 744 b 232 836 229 836 232 836 b 513 0 232 836 513 0 b 646 0 513 0 646 0 b 926 838 646 0 926 838 b 929 838 926 838 929 838 b 926 589 929 744 926 618 b 926 0 926 589 926 0 b 1057 0 926 0 1057 0 z "},"N":{"ha":1003,"x_min":0,"x_max":0,"o":"m 767 192 b 764 192 767 192 764 192 b 265 997 764 192 265 997 b 106 997 265 997 106 997 b 106 0 106 997 106 0 b 236 0 106 0 236 0 b 236 806 236 0 236 806 b 239 806 236 806 239 806 b 746 0 239 806 746 0 b 897 0 746 0 897 0 b 897 997 897 0 897 997 b 767 997 897 997 767 997 b 767 192 767 997 767 192 z "},"O":{"ha":1081,"x_min":0,"x_max":0,"o":"m 888 499 b 540 93 888 264 757 93 b 193 499 324 93 193 264 b 540 904 193 733 324 904 b 888 499 757 904 888 733 z m 1026 499 b 540 1024 1026 714 913 1024 b 54 499 168 1024 54 714 b 540 -26 54 283 168 -26 b 1026 499 913 -26 1026 283 z "},"P":{"ha":926,"x_min":0,"x_max":0,"o":"m 254 882 b 528 882 254 882 528 882 b 725 715 639 882 725 842 b 522 536 725 581 643 536 b 254 536 522 536 254 536 b 254 882 254 536 254 882 z m 254 421 b 568 421 254 421 568 421 b 864 717 785 421 864 578 b 568 997 864 878 753 997 b 119 997 568 997 119 997 b 119 0 119 997 119 0 b 254 0 119 0 254 0 b 254 421 254 0 254 421 z "},"Q":{"ha":1081,"x_min":0,"x_max":0,"o":"m 583 206 b 688 125 583 206 688 125 b 540 93 646 104 596 93 b 193 499 324 93 193 264 b 540 904 193 733 324 904 b 888 499 757 904 888 733 b 778 190 888 371 849 261 b 651 289 778 190 651 289 b 583 206 651 289 583 206 z m 1018 3 b 882 108 1018 3 882 108 b 1026 499 988 215 1026 372 b 540 1024 1026 714 913 1024 b 54 499 168 1024 54 714 b 540 -26 54 283 168 -26 b 797 40 646 -26 732 -1 b 950 -78 797 40 950 -78 b 1018 3 950 -78 1018 3 z "},"R":{"ha":1003,"x_min":0,"x_max":0,"o":"m 257 428 b 583 428 257 428 583 428 b 761 250 744 428 761 332 b 785 0 761 213 765 61 b 950 0 785 0 950 0 b 950 22 950 0 950 22 b 900 122 908 46 901 67 b 892 303 900 122 892 303 b 772 490 886 442 829 467 b 911 729 836 528 911 582 b 583 997 911 940 747 997 b 122 997 583 997 122 997 b 122 0 122 997 122 0 b 257 0 122 0 257 0 b 257 428 257 0 257 428 z m 257 882 b 593 882 257 882 593 882 b 772 715 660 882 772 869 b 569 543 772 568 668 543 b 257 543 569 543 257 543 b 257 882 257 543 257 882 z "},"S":{"ha":926,"x_min":0,"x_max":0,"o":"m 833 706 b 444 1024 828 815 793 1024 b 101 715 203 1024 101 871 b 314 481 101 542 249 496 b 518 433 314 481 518 433 b 731 257 682 394 731 361 b 469 89 731 114 567 89 b 194 322 342 89 194 142 b 68 322 194 322 68 322 b 169 69 68 229 85 146 b 471 -26 214 29 286 -26 b 861 275 642 -26 861 39 b 635 542 861 433 764 511 b 350 607 635 542 350 607 b 232 733 292 621 232 649 b 460 908 232 885 375 908 b 707 706 572 908 700 860 b 833 706 707 706 833 706 z "},"T":{"ha":849,"x_min":0,"x_max":0,"o":"m 19 878 b 357 878 19 878 357 878 b 357 0 357 878 357 0 b 492 0 357 0 492 0 b 492 878 492 0 492 878 b 829 878 492 878 829 878 b 829 997 829 878 829 997 b 19 997 829 997 19 997 b 19 878 19 997 19 878 z "},"U":{"ha":1003,"x_min":0,"x_max":0,"o":"m 760 997 b 760 367 760 997 760 367 b 497 93 760 150 621 93 b 244 369 376 93 244 153 b 244 997 244 369 244 997 b 110 997 244 997 110 997 b 110 332 110 997 110 332 b 493 -26 110 146 225 -26 b 894 350 767 -26 894 146 b 894 997 894 350 894 997 b 760 997 894 997 760 997 z "},"V":{"ha":926,"x_min":0,"x_max":0,"o":"m 465 147 b 463 147 465 147 463 147 b 178 997 463 147 178 997 b 28 997 178 997 28 997 b 392 0 28 997 392 0 b 535 0 392 0 535 0 b 899 997 535 0 899 997 b 747 997 899 997 747 997 b 465 147 747 997 465 147 z "},"W":{"ha":1311,"x_min":0,"x_max":0,"o":"m 654 826 b 657 826 654 826 657 826 b 885 0 657 826 885 0 b 1026 0 885 0 1026 0 b 1289 997 1026 0 1289 997 b 1140 997 1289 997 1140 997 b 954 186 1140 997 954 186 b 951 186 954 186 951 186 b 728 997 951 186 728 997 b 581 997 728 997 581 997 b 357 186 581 997 357 186 b 354 186 357 186 354 186 b 168 997 354 186 168 997 b 22 997 168 997 22 997 b 282 0 22 997 282 0 b 424 0 282 0 424 0 b 654 826 424 0 654 826 z "},"X":{"ha":926,"x_min":0,"x_max":0,"o":"m 550 511 b 885 997 550 511 885 997 b 724 997 885 997 724 997 b 471 615 724 997 471 615 b 218 997 471 615 218 997 b 49 997 218 997 49 997 b 383 511 49 997 383 511 b 26 0 383 511 26 0 b 189 0 26 0 189 0 b 465 410 189 0 465 410 b 733 0 465 410 733 0 b 900 0 733 0 900 0 b 550 511 900 0 550 511 z "},"Y":{"ha":926,"x_min":0,"x_max":0,"o":"m 531 401 b 907 997 531 401 907 997 b 749 997 907 997 749 997 b 463 518 749 997 463 518 b 176 997 463 518 176 997 b 19 997 176 997 19 997 b 396 401 19 997 396 401 b 396 0 396 401 396 0 b 531 0 396 0 531 0 b 531 401 531 0 531 401 z "},"Z":{"ha":849,"x_min":0,"x_max":0,"o":"m 817 119 b 203 119 817 119 203 119 b 817 881 203 119 817 881 b 817 997 817 881 817 997 b 78 997 817 997 78 997 b 78 878 78 997 78 878 b 643 878 78 878 643 878 b 32 113 643 878 32 113 b 32 0 32 113 32 0 b 817 0 32 0 817 0 b 817 119 817 0 817 119 z "},"[":{"ha":386,"x_min":0,"x_max":0,"o":"m 197 904 b 347 904 197 904 347 904 b 347 1003 347 904 347 1003 b 88 1003 347 1003 88 1003 b 88 -272 88 1003 88 -272 b 347 -272 88 -272 347 -272 b 347 -174 347 -272 347 -174 b 197 -174 347 -174 197 -174 b 197 904 197 -174 197 904 z "},"\\":{"ha":386,"x_min":0,"x_max":0,"o":"m 317 -26 b 410 -26 317 -26 410 -26 b 68 1024 410 -26 68 1024 b -24 1024 68 1024 -24 1024 b 317 -26 -24 1024 317 -26 z "},"]":{"ha":386,"x_min":0,"x_max":0,"o":"m 189 -174 b 39 -174 189 -174 39 -174 b 39 -272 39 -174 39 -272 b 299 -272 39 -272 299 -272 b 299 1003 299 -272 299 1003 b 39 1003 299 1003 39 1003 b 39 904 39 1003 39 904 b 189 904 39 904 189 904 b 189 -174 189 904 189 -174 z "},"^":{"ha":651,"x_min":0,"x_max":0,"o":"m 671 367 b 376 956 671 367 376 956 b 276 956 376 956 276 956 b -19 367 276 956 -19 367 b 89 367 -19 367 89 367 b 326 844 89 367 326 844 b 564 367 326 844 564 367 b 671 367 564 367 671 367 z "},"_":{"ha":772,"x_min":0,"x_max":0,"o":"m 772 -174 b 772 -104 772 -174 772 -104 b 0 -104 772 -104 0 -104 b 0 -174 0 -104 0 -174 b 772 -174 0 -174 772 -174 z "},"`":{"ha":463,"x_min":0,"x_max":0,"o":"m 200 824 b 293 824 200 824 293 824 b 169 1019 293 824 169 1019 b 19 1019 169 1019 19 1019 b 200 824 19 1019 200 824 z "},"a":{"ha":749,"x_min":0,"x_max":0,"o":"m 721 747 b 599 747 721 747 599 747 b 599 633 599 747 599 633 b 596 624 599 633 596 624 b 379 747 567 665 511 747 b 76 385 186 747 76 589 b 396 -21 76 211 149 -21 b 603 100 467 -21 550 1 b 606 100 603 100 606 100 b 606 0 606 100 606 0 b 721 0 606 0 721 0 b 721 747 721 0 721 747 z m 203 365 b 401 638 203 458 213 638 b 597 329 578 638 597 447 b 399 85 597 136 476 85 b 203 365 265 85 203 206 z "},"b":{"ha":772,"x_min":0,"x_max":0,"o":"m 196 0 b 196 90 196 0 196 90 b 199 90 196 90 199 90 b 399 -21 224 50 275 -21 b 718 385 646 -21 718 211 b 415 747 718 589 608 747 b 206 635 331 746 258 711 b 203 635 206 635 203 635 b 203 997 203 635 203 997 b 81 997 203 997 81 997 b 81 0 81 997 81 0 b 196 0 81 0 196 0 z m 592 365 b 396 85 592 206 529 85 b 197 329 318 85 197 136 b 393 638 197 447 217 638 b 592 365 582 638 592 458 z "},"c":{"ha":694,"x_min":0,"x_max":0,"o":"m 663 482 b 390 747 653 608 581 747 b 42 343 150 747 42 568 b 367 -21 42 133 163 -21 b 663 257 579 -21 650 142 b 544 257 663 257 544 257 b 371 85 524 146 453 85 b 172 364 203 85 172 239 b 372 638 172 493 221 638 b 544 482 475 638 529 579 b 663 482 544 482 663 482 z "},"d":{"ha":772,"x_min":0,"x_max":0,"o":"m 693 997 b 571 997 693 997 571 997 b 571 633 571 997 571 633 b 568 624 571 633 568 624 b 351 747 539 665 483 747 b 49 385 158 747 49 589 b 368 -21 49 211 121 -21 b 575 100 439 -21 522 1 b 578 100 575 100 578 100 b 578 0 578 100 578 0 b 693 0 578 0 693 0 b 693 997 693 0 693 997 z m 175 365 b 374 638 175 458 185 638 b 569 329 550 638 569 447 b 371 85 569 136 449 85 b 175 365 238 85 175 206 z "},"e":{"ha":772,"x_min":0,"x_max":0,"o":"m 585 228 b 397 85 581 174 513 85 b 186 324 257 85 186 172 b 717 324 186 324 717 324 b 404 747 717 581 614 747 b 56 343 164 747 56 568 b 381 -21 56 133 176 -21 b 578 29 497 -21 544 7 b 707 228 669 90 703 193 b 585 228 707 228 585 228 z m 186 421 b 388 638 186 533 275 638 b 590 421 536 638 583 533 b 186 421 590 421 186 421 z "},"f":{"ha":386,"x_min":0,"x_max":0,"o":"m 364 625 b 364 726 364 625 364 726 b 242 726 364 726 242 726 b 242 817 242 726 242 817 b 314 901 242 875 261 901 b 364 899 329 901 349 900 b 364 1008 364 899 364 1008 b 308 1011 344 1010 326 1011 b 119 851 189 1011 119 961 b 119 726 119 851 119 726 b 19 726 119 726 19 726 b 19 625 19 726 19 625 b 119 625 19 625 119 625 b 119 0 119 625 119 0 b 242 0 119 0 242 0 b 242 625 242 0 242 625 b 364 625 242 625 364 625 z "},"g":{"ha":772,"x_min":0,"x_max":0,"o":"m 182 365 b 381 638 182 458 192 638 b 576 329 557 638 576 447 b 378 85 576 136 456 85 b 182 365 244 85 182 206 z m 693 726 b 578 726 693 726 578 726 b 578 624 578 726 578 624 b 575 624 578 624 575 624 b 358 747 546 665 490 747 b 56 385 165 747 56 589 b 375 -21 56 211 128 -21 b 568 76 472 -21 536 25 b 568 82 568 76 568 82 b 571 82 568 82 571 82 b 571 51 571 82 571 51 b 364 -204 571 -35 575 -204 b 200 -89 335 -204 222 -204 b 78 -89 200 -89 78 -89 b 356 -306 101 -282 269 -306 b 693 60 692 -306 693 -44 b 693 726 693 60 693 726 z "},"h":{"ha":772,"x_min":0,"x_max":0,"o":"m 682 494 b 428 747 682 701 540 747 b 215 629 311 747 250 675 b 213 629 215 629 213 629 b 213 997 213 629 213 997 b 90 997 213 997 90 997 b 90 0 90 997 90 0 b 213 0 90 0 213 0 b 213 396 213 0 213 396 b 415 638 213 579 315 638 b 560 475 532 638 560 574 b 560 0 560 475 560 0 b 682 0 560 0 682 0 b 682 494 682 0 682 494 z "},"i":{"ha":308,"x_min":0,"x_max":0,"o":"m 215 726 b 93 726 215 726 93 726 b 93 0 93 726 93 0 b 215 0 93 0 215 0 b 215 726 215 0 215 726 z m 215 858 b 215 997 215 858 215 997 b 93 997 215 997 93 997 b 93 858 93 997 93 858 b 215 858 93 858 215 858 z "},"j":{"ha":308,"x_min":0,"x_max":0,"o":"m 215 726 b 93 726 215 726 93 726 b 93 -93 93 726 93 -93 b 3 -182 93 -175 75 -182 b -22 -182 3 -182 -22 -182 b -22 -287 -22 -182 -22 -287 b 29 -292 -4 -290 13 -292 b 215 -107 210 -292 215 -169 b 215 726 215 -107 215 726 z m 215 997 b 93 997 215 997 93 997 b 93 858 93 997 93 858 b 215 858 93 858 215 858 b 215 997 215 858 215 997 z "},"k":{"ha":694,"x_min":0,"x_max":0,"o":"m 401 456 b 679 726 401 456 679 726 b 524 726 679 726 524 726 b 211 419 524 726 211 419 b 211 997 211 419 211 997 b 93 997 211 997 93 997 b 93 0 93 997 93 0 b 211 0 93 0 211 0 b 211 275 211 0 211 275 b 313 367 211 275 313 367 b 539 0 313 367 539 0 b 696 0 539 0 696 0 b 401 456 696 0 401 456 z "},"l":{"ha":308,"x_min":0,"x_max":0,"o":"m 215 997 b 93 997 215 997 93 997 b 93 0 93 997 93 0 b 215 0 93 0 215 0 b 215 997 215 0 215 997 z "},"m":{"ha":1157,"x_min":0,"x_max":0,"o":"m 90 0 b 213 0 90 0 213 0 b 213 396 213 0 213 396 b 404 638 213 593 335 638 b 518 503 494 638 518 564 b 518 0 518 503 518 0 b 640 0 518 0 640 0 b 640 443 640 0 640 443 b 811 638 640 540 708 638 b 946 469 915 638 946 569 b 946 0 946 469 946 0 b 1068 0 946 0 1068 0 b 1068 503 1068 0 1068 503 b 843 747 1068 707 921 747 b 621 629 731 747 682 697 b 428 747 600 668 558 747 b 208 624 297 747 235 663 b 206 624 208 624 206 624 b 206 726 206 624 206 726 b 90 726 206 726 90 726 b 90 0 90 726 90 0 z "},"n":{"ha":772,"x_min":0,"x_max":0,"o":"m 682 494 b 428 747 682 701 540 747 b 208 624 303 747 235 663 b 206 624 208 624 206 624 b 206 726 206 624 206 726 b 90 726 206 726 90 726 b 90 0 90 726 90 0 b 213 0 90 0 213 0 b 213 396 213 0 213 396 b 404 638 213 593 335 638 b 560 447 524 638 560 574 b 560 0 560 447 560 0 b 682 0 560 0 682 0 b 682 494 682 0 682 494 z "},"o":{"ha":772,"x_min":0,"x_max":0,"o":"m 49 364 b 386 -19 49 176 154 -19 b 724 364 618 -19 724 176 b 386 747 724 551 618 747 b 49 364 154 747 49 551 z m 175 364 b 386 642 175 461 211 642 b 597 364 561 642 597 461 b 386 86 597 267 561 86 b 175 364 211 86 175 267 z "},"p":{"ha":772,"x_min":0,"x_max":0,"o":"m 197 329 b 393 638 197 447 217 638 b 592 365 582 638 592 458 b 396 85 592 206 529 85 b 197 329 318 85 197 136 z m 81 -287 b 203 -287 81 -287 203 -287 b 203 76 203 -287 203 76 b 206 76 203 76 206 76 b 399 -21 238 25 301 -21 b 718 385 646 -21 718 211 b 415 747 718 589 608 747 b 199 624 283 747 228 665 b 196 624 199 624 196 624 b 196 726 196 624 196 726 b 81 726 196 726 81 726 b 81 -287 81 726 81 -287 z "},"q":{"ha":772,"x_min":0,"x_max":0,"o":"m 686 726 b 571 726 686 726 571 726 b 571 624 571 726 571 624 b 568 624 571 624 568 624 b 351 747 539 665 483 747 b 49 385 158 747 49 589 b 368 -21 49 211 121 -21 b 561 76 465 -21 529 25 b 564 76 561 76 564 76 b 564 -287 564 76 564 -287 b 686 -287 564 -287 686 -287 b 686 726 686 -287 686 726 z m 569 329 b 371 85 569 136 449 85 b 175 365 238 85 175 206 b 374 638 175 458 185 638 b 569 329 550 638 569 447 z "},"r":{"ha":463,"x_min":0,"x_max":0,"o":"m 229 422 b 415 617 229 528 301 617 b 461 617 415 617 461 617 b 461 743 461 617 461 743 b 429 747 451 746 444 747 b 225 606 338 747 274 690 b 222 606 225 606 222 606 b 222 726 222 606 222 726 b 107 726 222 726 107 726 b 107 0 107 726 107 0 b 229 0 107 0 229 0 b 229 422 229 0 229 422 z "},"s":{"ha":694,"x_min":0,"x_max":0,"o":"m 621 519 b 343 747 621 556 603 747 b 68 515 200 747 68 675 b 236 339 68 415 135 364 b 378 304 236 339 378 304 b 522 200 482 278 522 258 b 356 85 522 119 443 85 b 163 233 183 85 167 176 b 44 233 163 233 44 233 b 357 -21 49 146 69 -21 b 644 219 521 -21 644 69 b 440 411 644 318 592 374 b 318 442 440 411 318 442 b 186 539 224 465 186 479 b 331 642 186 629 293 642 b 503 519 485 642 501 565 b 621 519 503 519 621 519 z "},"t":{"ha":386,"x_min":0,"x_max":0,"o":"m 357 625 b 357 726 357 625 357 726 b 240 726 357 726 240 726 b 240 929 240 726 240 929 b 118 929 240 929 118 929 b 118 726 118 929 118 726 b 19 726 118 726 19 726 b 19 625 19 726 19 625 b 118 625 19 625 118 625 b 118 0 118 625 118 0 b 240 0 118 0 240 0 b 240 625 240 0 240 625 b 357 625 240 625 357 625 z "},"u":{"ha":772,"x_min":0,"x_max":0,"o":"m 679 0 b 679 726 679 0 679 726 b 557 726 679 726 557 726 b 557 326 557 726 557 326 b 357 85 557 221 511 85 b 217 244 278 85 217 125 b 217 726 217 244 217 726 b 94 726 217 726 94 726 b 94 204 94 726 94 204 b 331 -21 94 31 224 -21 b 561 108 447 -21 510 24 b 564 106 561 108 564 106 b 564 0 564 106 564 0 b 679 0 564 0 679 0 z "},"v":{"ha":694,"x_min":0,"x_max":0,"o":"m 344 135 b 342 135 344 135 342 135 b 153 726 342 135 153 726 b 11 726 153 726 11 726 b 276 0 11 726 276 0 b 407 0 276 0 407 0 b 683 726 407 0 683 726 b 550 726 683 726 550 726 b 344 135 550 726 344 135 z "},"w":{"ha":1003,"x_min":0,"x_max":0,"o":"m 497 563 b 500 563 497 563 500 563 b 647 0 500 563 647 0 b 774 0 647 0 774 0 b 985 726 774 0 985 726 b 863 726 985 726 863 726 b 715 156 863 726 715 156 b 713 156 715 156 713 156 b 571 726 713 156 571 726 b 435 726 571 726 435 726 b 294 156 435 726 294 156 b 292 156 294 156 292 156 b 153 726 292 156 153 726 b 19 726 153 726 19 726 b 229 0 19 726 229 0 b 356 0 229 0 356 0 b 497 563 356 0 497 563 z "},"x":{"ha":694,"x_min":0,"x_max":0,"o":"m 425 374 b 671 726 425 374 671 726 b 521 726 671 726 521 726 b 353 471 521 726 353 471 b 185 726 353 471 185 726 b 28 726 185 726 28 726 b 271 374 28 726 271 374 b 15 0 271 374 15 0 b 169 0 15 0 169 0 b 344 274 169 0 344 274 b 525 0 344 274 525 0 b 681 0 525 0 681 0 b 425 374 681 0 425 374 z "},"y":{"ha":694,"x_min":0,"x_max":0,"o":"m 350 135 b 347 135 350 135 347 135 b 154 726 347 135 154 726 b 15 726 154 726 15 726 b 285 -19 15 726 285 -19 b 156 -187 226 -169 219 -187 b 82 -175 122 -187 97 -181 b 82 -286 82 -175 82 -286 b 133 -297 101 -292 115 -297 b 418 14 290 -297 303 -281 b 679 726 511 251 594 489 b 544 726 679 726 544 726 b 350 135 544 726 350 135 z "},"z":{"ha":694,"x_min":0,"x_max":0,"o":"m 639 626 b 639 726 639 626 639 726 b 76 726 639 726 76 726 b 76 625 76 726 76 625 b 481 625 76 625 481 625 b 43 96 481 625 43 96 b 43 0 43 96 43 0 b 651 0 43 0 651 0 b 651 101 651 0 651 101 b 206 101 651 101 206 101 b 639 626 206 101 639 626 z "},"{":{"ha":464,"x_min":0,"x_max":0,"o":"m 58 325 b 171 144 122 325 171 249 b 171 -93 171 144 171 -93 b 313 -272 171 -207 242 -272 b 406 -272 313 -272 406 -272 b 406 -182 406 -272 406 -182 b 344 -182 406 -182 344 -182 b 281 -68 296 -182 281 -129 b 281 167 281 -68 281 167 b 158 365 272 311 186 357 b 158 368 158 365 158 368 b 281 563 186 375 272 426 b 281 799 281 563 281 799 b 344 913 281 861 296 913 b 406 913 344 913 406 913 b 406 1003 406 913 406 1003 b 313 1003 406 1003 313 1003 b 171 824 242 1003 171 938 b 171 585 171 824 171 585 b 58 408 171 483 122 408 b 58 325 58 408 58 325 z "},"|":{"ha":361,"x_min":0,"x_max":0,"o":"m 131 -26 b 232 -26 131 -26 232 -26 b 232 1024 232 -26 232 1024 b 131 1024 232 1024 131 1024 b 131 -26 131 1024 131 -26 z "},"}":{"ha":464,"x_min":0,"x_max":0,"o":"m 406 408 b 293 585 342 408 293 483 b 293 824 293 585 293 824 b 151 1003 293 938 222 1003 b 58 1003 151 1003 58 1003 b 58 913 58 1003 58 913 b 119 913 58 913 119 913 b 183 799 168 913 183 861 b 183 563 183 799 183 563 b 306 368 192 426 278 375 b 306 365 306 368 306 365 b 183 167 278 357 192 311 b 183 -68 183 167 183 -68 b 119 -182 183 -129 168 -182 b 58 -182 119 -182 58 -182 b 58 -272 58 -182 58 -272 b 151 -272 58 -272 151 -272 b 293 -93 222 -272 293 -207 b 293 144 293 -93 293 144 b 406 325 293 249 342 325 b 406 408 406 325 406 408 z "},"~":{"ha":811,"x_min":0,"x_max":0,"o":"m 676 453 b 554 353 644 404 610 353 b 413 403 531 353 482 371 b 258 447 360 426 306 447 b 85 328 165 447 115 386 b 135 250 85 328 135 250 b 251 350 157 299 190 350 b 411 301 315 350 367 326 b 553 256 457 276 501 256 b 726 375 628 256 685 308 b 676 453 726 375 676 453 z "}," ":{"ha":28,"x_min":0,"x_max":0,"o":""},"¡":{"ha":463,"x_min":0,"x_max":0,"o":"m 164 585 b 299 585 164 585 299 585 b 299 726 299 585 299 726 b 164 726 299 726 164 726 b 164 585 164 726 164 585 z m 197 489 b 164 58 197 489 164 58 b 164 -271 164 58 164 -271 b 299 -271 164 -271 299 -271 b 299 58 299 -271 299 58 b 265 489 299 58 265 489 b 197 489 265 489 197 489 z "},"¢":{"ha":772,"x_min":0,"x_max":0,"o":"m 294 108 b 193 340 235 146 193 240 b 404 642 193 551 286 642 b 444 638 424 642 433 642 b 294 108 444 638 294 108 z m 707 479 b 528 726 690 649 578 713 b 563 865 528 726 563 865 b 508 865 563 865 508 865 b 472 739 508 865 472 739 b 413 747 458 744 440 747 b 71 340 197 747 71 601 b 263 -1 71 161 156 50 b 215 -160 263 -1 215 -160 b 272 -160 215 -160 272 -160 b 315 -17 272 -160 315 -17 b 399 -26 350 -22 376 -26 b 713 254 626 -26 700 153 b 594 254 713 254 594 254 b 394 79 561 108 479 79 b 346 85 369 79 360 81 b 499 621 346 85 499 621 b 593 479 564 596 582 525 b 707 479 593 479 707 479 z "},"£":{"ha":772,"x_min":0,"x_max":0,"o":"m 283 528 b 213 721 238 611 213 667 b 411 892 213 776 258 892 b 601 693 525 892 601 808 b 601 681 601 693 601 681 b 724 681 601 681 724 681 b 724 701 724 681 724 701 b 425 997 724 846 635 997 b 82 714 157 997 82 829 b 142 528 82 643 117 579 b 46 528 142 528 46 528 b 46 440 46 528 46 440 b 194 440 46 440 194 440 b 221 340 204 418 221 375 b 51 81 221 292 196 176 b 119 -15 51 81 119 -15 b 282 40 171 17 229 40 b 572 -22 385 40 489 -22 b 749 44 639 -22 690 0 b 692 136 749 44 692 136 b 586 93 671 115 624 93 b 353 142 528 93 439 142 b 171 90 285 142 222 119 b 171 93 171 90 171 93 b 168 90 171 93 168 90 b 336 349 283 168 336 269 b 324 440 336 388 331 414 b 515 440 324 440 515 440 b 515 528 515 440 515 528 b 283 528 515 528 283 528 z "},"¤":{"ha":772,"x_min":0,"x_max":0,"o":"m 667 838 b 588 760 667 838 588 760 b 386 831 535 806 460 831 b 185 760 313 831 238 806 b 106 838 185 760 106 838 b 39 771 106 838 39 771 b 115 696 39 771 115 696 b 46 488 68 642 46 564 b 115 278 46 411 68 336 b 40 200 115 278 40 200 b 103 138 40 200 103 138 b 179 218 103 138 179 218 b 386 142 235 167 311 142 b 593 218 461 142 538 167 b 669 138 593 218 669 138 b 732 200 669 138 732 200 b 657 278 732 200 657 278 b 726 488 704 336 726 411 b 657 696 726 564 704 642 b 733 771 657 696 733 771 b 667 838 733 771 667 838 z m 147 488 b 386 733 147 618 254 733 b 625 488 518 733 625 618 b 386 239 625 354 519 239 b 147 488 253 239 147 354 z "},"¥":{"ha":772,"x_min":0,"x_max":0,"o":"m 58 454 b 325 454 58 454 325 454 b 325 336 325 454 325 336 b 58 336 325 336 58 336 b 58 257 58 336 58 257 b 325 257 58 257 325 257 b 325 0 325 257 325 0 b 447 0 325 0 447 0 b 447 257 447 0 447 257 b 715 257 447 257 715 257 b 715 336 715 257 715 336 b 447 336 715 336 447 336 b 447 454 447 336 447 454 b 715 454 447 454 715 454 b 715 533 715 454 715 533 b 500 533 715 533 500 533 b 768 956 500 533 768 956 b 629 956 768 956 629 956 b 386 546 629 956 386 546 b 143 956 386 546 143 956 b 4 956 143 956 4 956 b 272 533 4 956 272 533 b 58 533 272 533 58 533 b 58 454 58 533 58 454 z "},"¦":{"ha":361,"x_min":0,"x_max":0,"o":"m 131 -26 b 232 -26 131 -26 232 -26 b 232 382 232 -26 232 382 b 131 382 232 382 131 382 b 131 -26 131 382 131 -26 z m 131 639 b 232 639 131 639 232 639 b 232 1024 232 639 232 1024 b 131 1024 232 1024 131 1024 b 131 639 131 1024 131 639 z "},"§":{"ha":772,"x_min":0,"x_max":0,"o":"m 639 769 b 383 1024 639 975 494 1024 b 133 788 201 1024 133 890 b 199 649 133 733 151 700 b 60 429 118 601 60 547 b 150 260 60 388 75 310 b 442 65 150 260 442 65 b 518 -44 490 33 518 3 b 372 -160 518 -144 424 -160 b 238 -4 247 -160 238 -50 b 115 -4 238 -4 115 -4 b 389 -265 115 -189 233 -265 b 640 -42 507 -265 640 -185 b 568 117 640 28 611 71 b 711 339 639 161 711 222 b 560 561 711 453 644 511 b 357 681 560 561 357 681 b 256 806 294 718 256 754 b 383 918 256 889 329 918 b 521 769 513 918 518 814 b 639 769 521 769 639 769 z m 510 446 b 596 313 557 417 596 374 b 500 172 596 242 553 207 b 238 342 500 172 238 342 b 175 460 219 353 175 386 b 268 594 175 525 214 567 b 510 446 268 594 510 446 z "},"¨":{"ha":463,"x_min":0,"x_max":0,"o":"m 182 981 b 56 981 182 981 56 981 b 56 839 56 981 56 839 b 182 839 56 839 182 839 b 182 981 182 839 182 981 z m 407 981 b 281 981 407 981 281 981 b 281 839 281 981 281 839 b 407 839 281 839 407 839 b 407 981 407 839 407 981 z "},"©":{"ha":1024,"x_min":0,"x_max":0,"o":"m 514 -26 b 1044 500 800 -26 1044 196 b 514 1024 1044 801 800 1024 b -19 500 225 1024 -19 801 b 514 -26 -19 196 225 -26 z m 86 500 b 514 936 86 749 274 936 b 939 500 751 936 939 749 b 514 61 939 247 751 61 b 86 500 274 61 86 247 z m 696 401 b 532 269 683 324 619 269 b 328 503 406 269 328 378 b 528 731 328 632 397 731 b 696 604 615 731 679 681 b 789 604 696 604 789 604 b 526 822 769 746 660 822 b 222 501 338 822 222 686 b 532 178 222 319 343 178 b 790 401 660 178 764 264 b 696 401 790 401 696 401 z "},"ª":{"ha":514,"x_min":0,"x_max":0,"o":"m 481 631 b 454 628 471 629 461 628 b 429 654 438 628 429 635 b 429 901 429 654 429 901 b 253 1024 429 1014 290 1024 b 57 878 136 1024 61 982 b 132 878 57 878 132 878 b 239 951 135 900 143 951 b 344 897 314 951 344 926 b 311 844 344 854 328 847 b 189 831 311 844 189 831 b 33 689 46 814 33 731 b 182 563 33 614 96 563 b 353 633 274 563 322 603 b 436 563 356 594 367 563 b 481 569 454 563 467 567 b 481 631 481 569 481 631 z m 201 635 b 121 704 142 635 121 663 b 217 764 121 749 178 760 b 344 792 315 776 336 783 b 344 738 344 792 344 738 b 201 635 349 679 276 635 z m 49 489 b 49 422 49 489 49 422 b 460 422 49 422 460 422 b 460 489 460 422 460 489 b 49 489 460 489 49 489 z "},"«":{"ha":772,"x_min":0,"x_max":0,"o":"m 353 272 b 207 385 353 272 207 385 b 353 497 207 385 353 497 b 353 619 353 497 353 619 b 135 449 353 619 135 449 b 135 321 135 449 135 321 b 353 150 135 321 353 150 b 353 272 353 150 353 272 z m 638 272 b 492 385 638 272 492 385 b 638 497 492 385 638 497 b 638 619 638 497 638 619 b 419 449 638 619 419 449 b 419 321 419 449 419 321 b 638 150 419 321 638 150 b 638 272 638 150 638 272 z "},"¬":{"ha":811,"x_min":0,"x_max":0,"o":"m 656 150 b 757 150 656 150 757 150 b 757 542 757 150 757 542 b 54 542 757 542 54 542 b 54 440 54 542 54 440 b 656 440 54 440 656 440 b 656 150 656 440 656 150 z "},"®":{"ha":1024,"x_min":0,"x_max":0,"o":"m 514 -26 b 1044 500 800 -26 1044 196 b 514 1024 1044 801 800 1024 b -19 500 225 1024 -19 801 b 514 -26 -19 196 225 -26 z m 86 500 b 514 936 86 749 274 936 b 939 500 751 936 939 749 b 514 61 939 247 751 61 b 86 500 274 61 86 247 z m 403 458 b 508 458 403 458 508 458 b 668 196 508 458 668 196 b 771 196 668 196 771 196 b 599 463 771 196 599 463 b 756 629 688 474 756 521 b 542 801 756 749 685 801 b 311 801 542 801 311 801 b 311 196 311 801 311 196 b 403 196 311 196 403 196 b 403 458 403 196 403 458 z m 403 536 b 403 724 403 536 403 724 b 528 724 403 724 528 724 b 660 635 592 724 660 710 b 513 536 660 542 590 536 b 403 536 513 536 403 536 z "},"¯":{"ha":463,"x_min":0,"x_max":0,"o":"m 449 950 b 14 950 449 950 14 950 b 14 871 14 950 14 871 b 449 871 14 871 449 871 b 449 950 449 871 449 950 z "},"°":{"ha":556,"x_min":0,"x_max":0,"o":"m 278 917 b 414 774 351 917 414 847 b 278 631 414 700 351 631 b 142 774 204 631 142 700 b 278 917 142 847 204 917 z m 481 774 b 278 976 481 889 393 976 b 75 774 163 976 75 889 b 278 571 75 658 163 571 b 481 774 393 571 481 658 z "},"±":{"ha":811,"x_min":0,"x_max":0,"o":"m 356 479 b 54 479 356 479 54 479 b 54 378 54 479 54 378 b 356 378 54 378 356 378 b 356 154 356 378 356 154 b 457 154 356 154 457 154 b 457 378 457 154 457 378 b 757 378 457 378 757 378 b 757 479 757 378 757 479 b 457 479 757 479 457 479 b 457 703 457 479 457 703 b 356 703 457 703 356 703 b 356 479 356 703 356 479 z m 54 0 b 757 0 54 0 757 0 b 757 101 757 0 757 101 b 54 101 757 101 54 101 b 54 0 54 101 54 0 z "},"²":{"ha":463,"x_min":0,"x_max":0,"o":"m 110 767 b 235 896 113 801 118 896 b 351 804 328 896 356 846 b 233 668 351 728 306 707 b 150 622 233 668 150 622 b 6 390 69 578 11 513 b 449 390 6 390 449 390 b 449 475 449 390 449 475 b 110 475 449 475 110 475 b 221 572 129 507 156 538 b 283 604 221 572 283 604 b 449 801 375 650 449 696 b 246 976 449 910 360 976 b 26 767 178 976 26 957 b 110 767 26 767 110 767 z "},"³":{"ha":463,"x_min":0,"x_max":0,"o":"m 7 569 b 103 401 13 503 32 435 b 219 375 133 386 172 375 b 451 564 385 375 451 468 b 346 699 451 642 408 682 b 346 701 346 699 346 701 b 428 822 381 711 428 747 b 232 976 428 911 354 976 b 22 785 65 976 22 871 b 107 785 22 785 107 785 b 219 896 110 833 126 896 b 331 818 315 896 331 847 b 217 725 331 744 278 725 b 179 725 217 725 179 725 b 179 654 179 725 179 654 b 211 654 179 654 211 654 b 354 554 265 654 354 653 b 221 456 354 486 301 456 b 101 569 117 456 104 521 b 7 569 101 569 7 569 z "},"´":{"ha":463,"x_min":0,"x_max":0,"o":"m 443 1019 b 293 1019 443 1019 293 1019 b 169 824 293 1019 169 824 b 263 824 169 824 263 824 b 443 1019 263 824 443 1019 z "},"µ":{"ha":772,"x_min":0,"x_max":0,"o":"m 679 0 b 679 726 679 0 679 726 b 557 726 679 726 557 726 b 557 326 557 726 557 326 b 357 85 557 221 511 85 b 217 244 278 85 217 125 b 217 726 217 244 217 726 b 94 726 217 726 94 726 b 94 204 94 726 94 204 b 94 -287 94 204 94 -287 b 217 -287 94 -287 217 -287 b 217 26 217 -287 217 26 b 219 26 217 26 219 26 b 331 -21 251 -15 303 -21 b 561 108 447 -21 510 24 b 564 106 561 108 564 106 b 564 0 564 106 564 0 b 679 0 564 0 679 0 z "},"¶":{"ha":746,"x_min":0,"x_max":0,"o":"m 322 -240 b 424 -240 322 -240 424 -240 b 424 914 424 -240 424 914 b 589 914 424 914 589 914 b 589 -240 589 914 589 -240 b 690 -240 589 -240 690 -240 b 690 997 690 -240 690 997 b 346 997 690 997 346 997 b 25 733 151 997 25 917 b 322 478 25 589 144 478 b 322 -240 322 478 322 -240 z "},"·":{"ha":386,"x_min":0,"x_max":0,"o":"m 194 438 b 107 350 149 438 107 401 b 193 264 107 304 146 264 b 281 350 243 264 281 306 b 194 438 281 400 238 438 z "},"¸":{"ha":463,"x_min":0,"x_max":0,"o":"m 110 -119 b 133 -146 110 -119 133 -146 b 188 -135 163 -137 175 -135 b 254 -189 207 -135 254 -146 b 176 -247 254 -240 203 -247 b 86 -226 142 -247 121 -240 b 63 -282 86 -226 63 -282 b 196 -312 99 -297 144 -312 b 360 -185 299 -312 360 -257 b 243 -81 360 -140 333 -81 b 200 -86 225 -81 215 -83 b 264 0 200 -86 264 0 b 199 0 264 0 199 0 b 110 -119 199 0 110 -119 z "},"¹":{"ha":463,"x_min":0,"x_max":0,"o":"m 210 801 b 210 390 210 801 210 390 b 308 390 210 390 308 390 b 308 976 308 390 308 976 b 231 976 308 976 231 976 b 60 865 206 881 163 872 b 60 801 60 865 60 801 b 210 801 60 801 210 801 z "},"º":{"ha":507,"x_min":0,"x_max":0,"o":"m 474 793 b 254 1024 474 974 357 1024 b 35 793 151 1024 35 974 b 254 563 35 613 151 563 b 474 793 357 563 474 613 z m 381 793 b 254 635 381 736 364 635 b 128 793 144 635 128 736 b 254 951 128 850 144 951 b 381 793 364 951 381 850 z m 49 489 b 49 422 49 489 49 422 b 460 422 49 422 460 422 b 460 489 460 422 460 489 b 49 489 460 489 49 489 z "},"»":{"ha":772,"x_min":0,"x_max":0,"o":"m 353 321 b 353 449 353 321 353 449 b 135 619 353 449 135 619 b 135 497 135 619 135 497 b 281 385 135 497 281 385 b 135 272 281 385 135 272 b 135 150 135 272 135 150 b 353 321 135 150 353 321 z m 638 321 b 638 449 638 321 638 449 b 419 619 638 449 419 619 b 419 497 419 619 419 497 b 565 385 419 497 565 385 b 419 272 565 385 419 272 b 419 150 419 272 419 150 b 638 321 419 150 638 321 z "},"¼":{"ha":1158,"x_min":0,"x_max":0,"o":"m 582 131 b 868 131 582 131 868 131 b 868 0 868 131 868 0 b 957 0 868 0 957 0 b 957 131 957 0 957 131 b 1050 131 957 131 1050 131 b 1050 211 1050 131 1050 211 b 957 211 1050 211 957 211 b 957 586 957 211 957 586 b 868 586 957 586 868 586 b 582 214 868 586 582 214 b 582 131 582 214 582 131 z m 868 211 b 668 211 868 211 668 211 b 865 471 668 211 865 471 b 868 471 865 471 868 471 b 868 211 868 471 868 211 z m 907 976 b 828 976 907 976 828 976 b 214 -26 828 976 214 -26 b 293 -26 214 -26 293 -26 b 907 976 293 -26 907 976 z m 251 806 b 251 390 251 806 251 390 b 346 390 251 390 346 390 b 346 976 346 390 346 976 b 272 976 346 976 272 976 b 101 865 247 881 204 872 b 101 806 101 865 101 806 b 251 806 101 806 251 806 z "},"½":{"ha":1158,"x_min":0,"x_max":0,"o":"m 857 976 b 778 976 857 976 778 976 b 164 -26 778 976 164 -26 b 243 -26 164 -26 243 -26 b 857 976 243 -26 857 976 z m 210 801 b 210 390 210 801 210 390 b 308 390 210 390 308 390 b 308 976 308 390 308 976 b 231 976 308 976 231 976 b 60 865 206 881 163 872 b 60 801 60 865 60 801 b 210 801 60 801 210 801 z m 735 376 b 860 506 738 411 743 506 b 976 414 953 506 981 456 b 858 278 976 338 931 317 b 775 232 858 278 775 232 b 631 0 694 188 636 122 b 1074 0 631 0 1074 0 b 1074 85 1074 0 1074 85 b 735 85 1074 85 735 85 b 846 182 754 117 781 147 b 908 214 846 182 908 214 b 1074 411 1000 260 1074 306 b 871 586 1074 519 985 586 b 651 376 803 586 651 567 b 735 376 651 376 735 376 z "},"¾":{"ha":1158,"x_min":0,"x_max":0,"o":"m 657 131 b 943 131 657 131 943 131 b 943 0 943 131 943 0 b 1032 0 943 0 1032 0 b 1032 131 1032 0 1032 131 b 1125 131 1032 131 1125 131 b 1125 211 1125 131 1125 211 b 1032 211 1125 211 1032 211 b 1032 586 1032 211 1032 586 b 943 586 1032 586 943 586 b 657 214 943 586 657 214 b 657 131 657 214 657 131 z m 940 471 b 943 471 940 471 943 471 b 943 211 943 471 943 211 b 743 211 943 211 743 211 b 940 471 743 211 940 471 z m 989 976 b 910 976 989 976 910 976 b 296 -26 910 976 296 -26 b 375 -26 296 -26 375 -26 b 989 976 375 -26 989 976 z m 63 569 b 158 401 68 503 88 435 b 275 375 189 386 228 375 b 507 564 440 375 507 468 b 401 699 507 642 464 682 b 401 701 401 699 401 701 b 483 822 436 711 483 747 b 288 976 483 911 410 976 b 78 785 121 976 78 871 b 163 785 78 785 163 785 b 275 896 165 833 182 896 b 386 818 371 896 386 847 b 272 725 386 744 333 725 b 235 725 272 725 235 725 b 235 654 235 725 235 654 b 267 654 235 654 267 654 b 410 554 321 654 410 653 b 276 456 410 486 357 456 b 157 569 172 456 160 521 b 63 569 157 569 63 569 z "},"¿":{"ha":849,"x_min":0,"x_max":0,"o":"m 610 46 b 425 -174 610 -14 603 -174 b 257 -15 290 -174 257 -74 b 368 178 257 64 276 83 b 500 476 465 278 500 318 b 378 476 500 476 378 476 b 257 222 381 339 344 307 b 126 -7 163 132 126 85 b 421 -279 126 -185 265 -279 b 622 -215 494 -279 567 -258 b 732 46 724 -137 728 -49 b 610 46 732 46 610 46 z m 368 588 b 503 588 368 588 503 588 b 503 729 503 588 503 729 b 368 729 503 729 368 729 b 368 588 368 729 368 588 z "},"À":{"ha":926,"x_min":0,"x_max":0,"o":"m 663 290 b 761 0 663 290 761 0 b 908 0 761 0 908 0 b 547 997 908 0 547 997 b 394 997 547 997 394 997 b 19 0 394 997 19 0 b 158 0 19 0 158 0 b 263 290 158 0 263 290 b 663 290 263 290 663 290 z m 304 410 b 464 849 304 410 464 849 b 467 849 464 849 467 849 b 614 410 467 849 614 410 b 304 410 614 410 304 410 z m 432 1094 b 525 1094 432 1094 525 1094 b 401 1290 525 1094 401 1290 b 251 1290 401 1290 251 1290 b 432 1094 251 1290 432 1094 z "},"Á":{"ha":926,"x_min":0,"x_max":0,"o":"m 663 290 b 761 0 663 290 761 0 b 908 0 761 0 908 0 b 547 997 908 0 547 997 b 394 997 547 997 394 997 b 19 0 394 997 19 0 b 158 0 19 0 158 0 b 263 290 158 0 263 290 b 663 290 263 290 663 290 z m 304 410 b 464 849 304 410 464 849 b 467 849 464 849 467 849 b 614 410 467 849 614 410 b 304 410 614 410 304 410 z m 675 1290 b 525 1290 675 1290 525 1290 b 401 1094 525 1290 401 1094 b 494 1094 401 1094 494 1094 b 675 1290 494 1094 675 1290 z "},"Â":{"ha":926,"x_min":0,"x_max":0,"o":"m 663 290 b 761 0 663 290 761 0 b 908 0 761 0 908 0 b 547 997 908 0 547 997 b 394 997 547 997 394 997 b 19 0 394 997 19 0 b 158 0 19 0 158 0 b 263 290 158 0 263 290 b 663 290 263 290 663 290 z m 304 410 b 464 849 304 410 464 849 b 467 849 464 849 467 849 b 614 410 467 849 614 410 b 304 410 614 410 304 410 z m 463 1224 b 554 1094 463 1224 554 1094 b 665 1094 554 1094 665 1094 b 528 1290 665 1094 528 1290 b 399 1290 528 1290 399 1290 b 261 1094 399 1290 261 1094 b 371 1094 261 1094 371 1094 b 463 1224 371 1094 463 1224 z "},"Ã":{"ha":926,"x_min":0,"x_max":0,"o":"m 663 290 b 761 0 663 290 761 0 b 908 0 761 0 908 0 b 547 997 908 0 547 997 b 394 997 547 997 394 997 b 19 0 394 997 19 0 b 158 0 19 0 158 0 b 263 290 158 0 263 290 b 663 290 263 290 663 290 z m 304 410 b 464 849 304 410 464 849 b 467 849 464 849 467 849 b 614 410 467 849 614 410 b 304 410 614 410 304 410 z m 631 1274 b 561 1210 625 1247 617 1210 b 496 1228 550 1210 522 1217 b 465 1240 496 1228 465 1240 b 371 1261 436 1251 407 1261 b 226 1113 278 1261 238 1194 b 293 1113 226 1113 293 1113 b 358 1174 304 1149 321 1174 b 443 1153 375 1174 394 1169 b 479 1140 443 1153 479 1140 b 561 1122 517 1128 536 1122 b 700 1274 640 1122 690 1190 b 631 1274 700 1274 631 1274 z "},"Ä":{"ha":926,"x_min":0,"x_max":0,"o":"m 663 290 b 761 0 663 290 761 0 b 908 0 761 0 908 0 b 547 997 908 0 547 997 b 394 997 547 997 394 997 b 19 0 394 997 19 0 b 158 0 19 0 158 0 b 263 290 158 0 263 290 b 663 290 263 290 663 290 z m 304 410 b 464 849 304 410 464 849 b 467 849 464 849 467 849 b 614 410 467 849 614 410 b 304 410 614 410 304 410 z m 414 1251 b 288 1251 414 1251 288 1251 b 288 1110 288 1251 288 1110 b 414 1110 288 1110 414 1110 b 414 1251 414 1110 414 1251 z m 639 1251 b 513 1251 639 1251 513 1251 b 513 1110 513 1251 513 1110 b 639 1110 513 1110 639 1110 b 639 1251 639 1110 639 1251 z "},"Å":{"ha":926,"x_min":0,"x_max":0,"o":"m 663 290 b 761 0 663 290 761 0 b 908 0 761 0 908 0 b 547 997 908 0 547 997 b 394 997 547 997 394 997 b 19 0 394 997 19 0 b 158 0 19 0 158 0 b 263 290 158 0 263 290 b 663 290 263 290 663 290 z m 304 410 b 464 849 304 410 464 849 b 467 849 464 849 467 849 b 614 410 467 849 614 410 b 304 410 614 410 304 410 z m 464 1293 b 336 1165 390 1293 336 1239 b 464 1038 336 1092 390 1038 b 592 1165 538 1038 592 1092 b 464 1293 592 1239 538 1293 z m 392 1165 b 464 1238 392 1206 424 1238 b 536 1165 504 1238 536 1206 b 464 1093 536 1125 504 1093 b 392 1165 424 1093 392 1125 z "},"Æ":{"ha":1389,"x_min":0,"x_max":0,"o":"m 267 290 b 635 290 267 290 635 290 b 635 0 635 290 635 0 b 1321 0 635 0 1321 0 b 1321 119 1321 0 1321 119 b 769 119 1321 119 769 119 b 769 453 769 119 769 453 b 1264 453 769 453 1264 453 b 1264 572 1264 453 1264 572 b 769 572 1264 572 769 572 b 769 878 769 572 769 878 b 1311 878 769 878 1311 878 b 1311 997 1311 878 1311 997 b 417 997 1311 997 417 997 b 11 0 417 997 11 0 b 157 0 11 0 157 0 b 267 290 157 0 267 290 z m 635 410 b 315 410 635 410 315 410 b 500 878 315 410 500 878 b 635 878 500 878 635 878 b 635 410 635 878 635 410 z "},"Ç":{"ha":1003,"x_min":0,"x_max":0,"o":"m 936 697 b 526 1024 917 864 783 1024 b 61 504 236 1024 61 811 b 510 -26 61 121 283 -26 b 946 367 585 -26 890 -10 b 815 367 946 367 815 367 b 531 93 769 135 618 93 b 200 508 283 93 200 274 b 526 904 200 771 346 904 b 806 697 622 904 768 872 b 936 697 806 697 936 697 z m 381 -119 b 404 -146 381 -119 404 -146 b 458 -135 433 -137 446 -135 b 525 -189 478 -135 525 -146 b 447 -247 525 -240 474 -247 b 357 -226 413 -247 392 -240 b 333 -282 357 -226 333 -282 b 467 -312 369 -297 415 -312 b 631 -185 569 -312 631 -257 b 514 -81 631 -140 604 -81 b 471 -86 496 -81 486 -83 b 535 0 471 -86 535 0 b 469 0 535 0 469 0 b 381 -119 469 0 381 -119 z "},"È":{"ha":926,"x_min":0,"x_max":0,"o":"m 856 119 b 254 119 856 119 254 119 b 254 453 254 119 254 453 b 800 453 254 453 800 453 b 800 572 800 453 800 572 b 254 572 800 572 254 572 b 254 878 254 572 254 878 b 846 878 254 878 846 878 b 846 997 846 878 846 997 b 119 997 846 997 119 997 b 119 0 119 997 119 0 b 856 0 119 0 856 0 b 856 119 856 0 856 119 z m 432 1094 b 525 1094 432 1094 525 1094 b 401 1290 525 1094 401 1290 b 251 1290 401 1290 251 1290 b 432 1094 251 1290 432 1094 z "},"É":{"ha":926,"x_min":0,"x_max":0,"o":"m 856 119 b 254 119 856 119 254 119 b 254 453 254 119 254 453 b 800 453 254 453 800 453 b 800 572 800 453 800 572 b 254 572 800 572 254 572 b 254 878 254 572 254 878 b 846 878 254 878 846 878 b 846 997 846 878 846 997 b 119 997 846 997 119 997 b 119 0 119 997 119 0 b 856 0 119 0 856 0 b 856 119 856 0 856 119 z m 675 1290 b 525 1290 675 1290 525 1290 b 401 1094 525 1290 401 1094 b 494 1094 401 1094 494 1094 b 675 1290 494 1094 675 1290 z "},"Ê":{"ha":926,"x_min":0,"x_max":0,"o":"m 856 119 b 254 119 856 119 254 119 b 254 453 254 119 254 453 b 800 453 254 453 800 453 b 800 572 800 453 800 572 b 254 572 800 572 254 572 b 254 878 254 572 254 878 b 846 878 254 878 846 878 b 846 997 846 878 846 997 b 119 997 846 997 119 997 b 119 0 119 997 119 0 b 856 0 119 0 856 0 b 856 119 856 0 856 119 z m 463 1224 b 554 1094 463 1224 554 1094 b 665 1094 554 1094 665 1094 b 528 1290 665 1094 528 1290 b 399 1290 528 1290 399 1290 b 261 1094 399 1290 261 1094 b 371 1094 261 1094 371 1094 b 463 1224 371 1094 463 1224 z "},"Ë":{"ha":926,"x_min":0,"x_max":0,"o":"m 856 119 b 254 119 856 119 254 119 b 254 453 254 119 254 453 b 800 453 254 453 800 453 b 800 572 800 453 800 572 b 254 572 800 572 254 572 b 254 878 254 572 254 878 b 846 878 254 878 846 878 b 846 997 846 878 846 997 b 119 997 846 997 119 997 b 119 0 119 997 119 0 b 856 0 119 0 856 0 b 856 119 856 0 856 119 z m 414 1251 b 288 1251 414 1251 288 1251 b 288 1110 288 1251 288 1110 b 414 1110 288 1110 414 1110 b 414 1251 414 1110 414 1251 z m 639 1251 b 513 1251 639 1251 513 1251 b 513 1110 513 1251 513 1110 b 639 1110 513 1110 639 1110 b 639 1251 639 1110 639 1251 z "},"Ì":{"ha":386,"x_min":0,"x_max":0,"o":"m 261 997 b 126 997 261 997 126 997 b 126 0 126 997 126 0 b 261 0 126 0 261 0 b 261 997 261 0 261 997 z m 163 1094 b 256 1094 163 1094 256 1094 b 132 1290 256 1094 132 1290 b -18 1290 132 1290 -18 1290 b 163 1094 -18 1290 163 1094 z "},"Í":{"ha":386,"x_min":0,"x_max":0,"o":"m 261 997 b 126 997 261 997 126 997 b 126 0 126 997 126 0 b 261 0 126 0 261 0 b 261 997 261 0 261 997 z m 406 1290 b 256 1290 406 1290 256 1290 b 132 1094 256 1290 132 1094 b 225 1094 132 1094 225 1094 b 406 1290 225 1094 406 1290 z "},"Î":{"ha":386,"x_min":0,"x_max":0,"o":"m 261 997 b 126 997 261 997 126 997 b 126 0 126 997 126 0 b 261 0 126 0 261 0 b 261 997 261 0 261 997 z m 193 1224 b 285 1094 193 1224 285 1094 b 396 1094 285 1094 396 1094 b 258 1290 396 1094 258 1290 b 129 1290 258 1290 129 1290 b -8 1094 129 1290 -8 1094 b 101 1094 -8 1094 101 1094 b 193 1224 101 1094 193 1224 z "},"Ï":{"ha":386,"x_min":0,"x_max":0,"o":"m 261 997 b 126 997 261 997 126 997 b 126 0 126 997 126 0 b 261 0 126 0 261 0 b 261 997 261 0 261 997 z m 144 1251 b 18 1251 144 1251 18 1251 b 18 1110 18 1251 18 1110 b 144 1110 18 1110 144 1110 b 144 1251 144 1110 144 1251 z m 369 1251 b 243 1251 369 1251 243 1251 b 243 1110 243 1251 243 1110 b 369 1110 243 1110 369 1110 b 369 1251 369 1110 369 1251 z "},"Ð":{"ha":1003,"x_min":0,"x_max":0,"o":"m 514 572 b 247 572 514 572 247 572 b 247 882 247 572 247 882 b 499 882 247 882 499 882 b 797 504 682 882 797 756 b 508 115 797 253 683 115 b 247 115 508 115 247 115 b 247 453 247 115 247 453 b 514 453 247 453 514 453 b 514 572 514 453 514 572 z m 0 453 b 113 453 0 453 113 453 b 113 0 113 453 113 0 b 511 0 113 0 511 0 b 936 513 915 0 936 428 b 517 997 936 800 776 997 b 113 997 517 997 113 997 b 113 572 113 997 113 572 b 0 572 113 572 0 572 b 0 453 0 572 0 453 z "},"Ñ":{"ha":1003,"x_min":0,"x_max":0,"o":"m 767 192 b 764 192 767 192 764 192 b 265 997 764 192 265 997 b 106 997 265 997 106 997 b 106 0 106 997 106 0 b 236 0 106 0 236 0 b 236 806 236 0 236 806 b 239 806 236 806 239 806 b 746 0 239 806 746 0 b 897 0 746 0 897 0 b 897 997 897 0 897 997 b 767 997 897 997 767 997 b 767 192 767 997 767 192 z m 683 1274 b 614 1210 678 1247 669 1210 b 549 1228 603 1210 575 1217 b 518 1240 549 1228 518 1240 b 424 1261 489 1251 460 1261 b 279 1113 331 1261 290 1194 b 346 1113 279 1113 346 1113 b 411 1174 357 1149 374 1174 b 496 1153 428 1174 447 1169 b 532 1140 496 1153 532 1140 b 614 1122 569 1128 589 1122 b 753 1274 693 1122 743 1190 b 683 1274 753 1274 683 1274 z "},"Ò":{"ha":1081,"x_min":0,"x_max":0,"o":"m 888 499 b 540 93 888 264 757 93 b 193 499 324 93 193 264 b 540 904 193 733 324 904 b 888 499 757 904 888 733 z m 1026 499 b 540 1024 1026 714 913 1024 b 54 499 168 1024 54 714 b 540 -26 54 283 168 -26 b 1026 499 913 -26 1026 283 z m 510 1094 b 603 1094 510 1094 603 1094 b 479 1290 603 1094 479 1290 b 329 1290 479 1290 329 1290 b 510 1094 329 1290 510 1094 z "},"Ó":{"ha":1081,"x_min":0,"x_max":0,"o":"m 888 499 b 540 93 888 264 757 93 b 193 499 324 93 193 264 b 540 904 193 733 324 904 b 888 499 757 904 888 733 z m 1026 499 b 540 1024 1026 714 913 1024 b 54 499 168 1024 54 714 b 540 -26 54 283 168 -26 b 1026 499 913 -26 1026 283 z m 753 1290 b 603 1290 753 1290 603 1290 b 479 1094 603 1290 479 1094 b 572 1094 479 1094 572 1094 b 753 1290 572 1094 753 1290 z "},"Ô":{"ha":1081,"x_min":0,"x_max":0,"o":"m 888 499 b 540 93 888 264 757 93 b 193 499 324 93 193 264 b 540 904 193 733 324 904 b 888 499 757 904 888 733 z m 1026 499 b 540 1024 1026 714 913 1024 b 54 499 168 1024 54 714 b 540 -26 54 283 168 -26 b 1026 499 913 -26 1026 283 z m 540 1224 b 632 1094 540 1224 632 1094 b 743 1094 632 1094 743 1094 b 606 1290 743 1094 606 1290 b 476 1290 606 1290 476 1290 b 339 1094 476 1290 339 1094 b 449 1094 339 1094 449 1094 b 540 1224 449 1094 540 1224 z "},"Õ":{"ha":1081,"x_min":0,"x_max":0,"o":"m 888 499 b 540 93 888 264 757 93 b 193 499 324 93 193 264 b 540 904 193 733 324 904 b 888 499 757 904 888 733 z m 1026 499 b 540 1024 1026 714 913 1024 b 54 499 168 1024 54 714 b 540 -26 54 283 168 -26 b 1026 499 913 -26 1026 283 z m 708 1274 b 639 1210 703 1247 694 1210 b 574 1228 628 1210 600 1217 b 543 1240 574 1228 543 1240 b 449 1261 514 1251 485 1261 b 304 1113 356 1261 315 1194 b 371 1113 304 1113 371 1113 b 436 1174 382 1149 399 1174 b 521 1153 453 1174 472 1169 b 557 1140 521 1153 557 1140 b 639 1122 594 1128 614 1122 b 778 1274 718 1122 768 1190 b 708 1274 778 1274 708 1274 z "},"Ö":{"ha":1081,"x_min":0,"x_max":0,"o":"m 888 499 b 540 93 888 264 757 93 b 193 499 324 93 193 264 b 540 904 193 733 324 904 b 888 499 757 904 888 733 z m 1026 499 b 540 1024 1026 714 913 1024 b 54 499 168 1024 54 714 b 540 -26 54 283 168 -26 b 1026 499 913 -26 1026 283 z m 492 1251 b 365 1251 492 1251 365 1251 b 365 1110 365 1251 365 1110 b 492 1110 365 1110 492 1110 b 492 1251 492 1110 492 1251 z m 717 1251 b 590 1251 717 1251 590 1251 b 590 1110 590 1251 590 1110 b 717 1110 590 1110 717 1110 b 717 1251 717 1110 717 1251 z "},"×":{"ha":811,"x_min":0,"x_max":0,"o":"m 335 351 b 54 71 335 351 54 71 b 125 0 54 71 125 0 b 406 279 125 0 406 279 b 686 0 406 279 686 0 b 757 71 686 0 757 71 b 478 351 757 71 478 351 b 757 632 478 351 757 632 b 686 703 757 632 686 703 b 406 424 686 703 406 424 b 126 703 406 424 126 703 b 54 632 126 703 54 632 b 335 351 54 632 335 351 z "},"Ø":{"ha":1081,"x_min":0,"x_max":0,"o":"m 819 754 b 888 499 864 688 888 599 b 540 93 888 264 757 93 b 301 192 440 93 360 129 b 819 754 301 192 819 754 z m 264 238 b 193 499 218 308 193 397 b 540 904 193 733 324 904 b 783 803 642 904 725 867 b 264 238 783 803 264 238 z m 1028 982 b 985 1024 1028 982 985 1024 b 872 900 985 1024 872 900 b 540 1024 799 974 690 1024 b 54 499 168 1024 54 714 b 172 138 54 385 86 244 b 57 13 172 138 57 13 b 101 -26 57 13 101 -26 b 213 94 101 -26 213 94 b 540 -26 288 22 394 -26 b 1026 499 913 -26 1026 283 b 913 856 1026 611 996 749 b 1028 982 913 856 1028 982 z "},"Ù":{"ha":1003,"x_min":0,"x_max":0,"o":"m 760 997 b 760 367 760 997 760 367 b 497 93 760 150 621 93 b 244 369 376 93 244 153 b 244 997 244 369 244 997 b 110 997 244 997 110 997 b 110 332 110 997 110 332 b 493 -26 110 146 225 -26 b 894 350 767 -26 894 146 b 894 997 894 350 894 997 b 760 997 894 997 760 997 z m 471 1094 b 564 1094 471 1094 564 1094 b 440 1290 564 1094 440 1290 b 290 1290 440 1290 290 1290 b 471 1094 290 1290 471 1094 z "},"Ú":{"ha":1003,"x_min":0,"x_max":0,"o":"m 760 997 b 760 367 760 997 760 367 b 497 93 760 150 621 93 b 244 369 376 93 244 153 b 244 997 244 369 244 997 b 110 997 244 997 110 997 b 110 332 110 997 110 332 b 493 -26 110 146 225 -26 b 894 350 767 -26 894 146 b 894 997 894 350 894 997 b 760 997 894 997 760 997 z m 714 1290 b 564 1290 714 1290 564 1290 b 440 1094 564 1290 440 1094 b 533 1094 440 1094 533 1094 b 714 1290 533 1094 714 1290 z "},"Û":{"ha":1003,"x_min":0,"x_max":0,"o":"m 760 997 b 760 367 760 997 760 367 b 497 93 760 150 621 93 b 244 369 376 93 244 153 b 244 997 244 369 244 997 b 110 997 244 997 110 997 b 110 332 110 997 110 332 b 493 -26 110 146 225 -26 b 894 350 767 -26 894 146 b 894 997 894 350 894 997 b 760 997 894 997 760 997 z m 501 1224 b 593 1094 501 1224 593 1094 b 704 1094 593 1094 704 1094 b 567 1290 704 1094 567 1290 b 438 1290 567 1290 438 1290 b 300 1094 438 1290 300 1094 b 410 1094 300 1094 410 1094 b 501 1224 410 1094 501 1224 z "},"Ü":{"ha":1003,"x_min":0,"x_max":0,"o":"m 760 997 b 760 367 760 997 760 367 b 497 93 760 150 621 93 b 244 369 376 93 244 153 b 244 997 244 369 244 997 b 110 997 244 997 110 997 b 110 332 110 997 110 332 b 493 -26 110 146 225 -26 b 894 350 767 -26 894 146 b 894 997 894 350 894 997 b 760 997 894 997 760 997 z m 453 1251 b 326 1251 453 1251 326 1251 b 326 1110 326 1251 326 1110 b 453 1110 326 1110 453 1110 b 453 1251 453 1110 453 1251 z m 678 1251 b 551 1251 678 1251 551 1251 b 551 1110 551 1251 551 1110 b 678 1110 551 1110 678 1110 b 678 1251 678 1110 678 1251 z "},"Ý":{"ha":926,"x_min":0,"x_max":0,"o":"m 531 401 b 907 997 531 401 907 997 b 749 997 907 997 749 997 b 463 518 749 997 463 518 b 176 997 463 518 176 997 b 19 997 176 997 19 997 b 396 401 19 997 396 401 b 396 0 396 401 396 0 b 531 0 396 0 531 0 b 531 401 531 0 531 401 z m 675 1290 b 525 1290 675 1290 525 1290 b 401 1094 525 1290 401 1094 b 494 1094 401 1094 494 1094 b 675 1290 494 1094 675 1290 z "},"Þ":{"ha":926,"x_min":0,"x_max":0,"o":"m 254 717 b 528 717 254 717 528 717 b 725 550 639 717 725 676 b 522 371 725 415 643 371 b 254 371 522 371 254 371 b 254 717 254 371 254 717 z m 119 0 b 254 0 119 0 254 0 b 254 256 254 0 254 256 b 568 256 254 256 568 256 b 864 551 785 256 864 413 b 568 832 864 713 753 832 b 254 832 568 832 254 832 b 254 997 254 832 254 997 b 119 997 254 997 119 997 b 119 0 119 997 119 0 z "},"ß":{"ha":849,"x_min":0,"x_max":0,"o":"m 93 0 b 215 0 93 0 215 0 b 215 708 215 0 215 708 b 413 906 215 826 256 906 b 624 750 553 906 624 839 b 408 593 624 668 575 593 b 376 596 397 593 389 594 b 376 486 376 596 376 486 b 431 492 393 490 408 492 b 667 297 572 492 667 443 b 431 89 667 157 582 89 b 369 93 411 89 390 90 b 369 -11 369 93 369 -11 b 443 -21 389 -15 403 -21 b 793 331 642 -21 793 85 b 632 556 793 413 735 528 b 746 761 664 576 746 626 b 414 1011 746 913 619 1011 b 93 739 206 1011 93 899 b 93 0 93 739 93 0 z "},"à":{"ha":772,"x_min":0,"x_max":0,"o":"m 199 506 b 365 646 207 561 226 646 b 536 528 481 646 536 604 b 472 442 536 456 501 444 b 271 417 472 442 271 417 b 50 189 68 392 50 250 b 278 -21 50 64 144 -21 b 540 97 419 -21 493 46 b 669 -14 544 42 561 -14 b 736 0 697 -14 715 -6 b 736 89 736 0 736 89 b 696 83 722 86 707 83 b 656 126 671 83 656 96 b 656 544 656 126 656 544 b 386 747 656 731 444 747 b 86 506 207 747 92 679 b 199 506 86 506 199 506 z m 533 251 b 308 81 533 154 422 81 b 176 207 217 81 176 128 b 332 325 176 299 272 317 b 533 371 483 344 514 356 b 533 251 533 371 533 251 z m 356 824 b 449 824 356 824 449 824 b 325 1019 449 824 325 1019 b 175 1019 325 1019 175 1019 b 356 824 175 1019 356 824 z "},"á":{"ha":772,"x_min":0,"x_max":0,"o":"m 199 506 b 365 646 207 561 226 646 b 536 528 481 646 536 604 b 472 442 536 456 501 444 b 271 417 472 442 271 417 b 50 189 68 392 50 250 b 278 -21 50 64 144 -21 b 540 97 419 -21 493 46 b 669 -14 544 42 561 -14 b 736 0 697 -14 715 -6 b 736 89 736 0 736 89 b 696 83 722 86 707 83 b 656 126 671 83 656 96 b 656 544 656 126 656 544 b 386 747 656 731 444 747 b 86 506 207 747 92 679 b 199 506 86 506 199 506 z m 533 251 b 308 81 533 154 422 81 b 176 207 217 81 176 128 b 332 325 176 299 272 317 b 533 371 483 344 514 356 b 533 251 533 371 533 251 z m 599 1019 b 449 1019 599 1019 449 1019 b 325 824 449 1019 325 824 b 418 824 325 824 418 824 b 599 1019 418 824 599 1019 z "},"â":{"ha":772,"x_min":0,"x_max":0,"o":"m 199 506 b 365 646 207 561 226 646 b 536 528 481 646 536 604 b 472 442 536 456 501 444 b 271 417 472 442 271 417 b 50 189 68 392 50 250 b 278 -21 50 64 144 -21 b 540 97 419 -21 493 46 b 669 -14 544 42 561 -14 b 736 0 697 -14 715 -6 b 736 89 736 0 736 89 b 696 83 722 86 707 83 b 656 126 671 83 656 96 b 656 544 656 126 656 544 b 386 747 656 731 444 747 b 86 506 207 747 92 679 b 199 506 86 506 199 506 z m 533 251 b 308 81 533 154 422 81 b 176 207 217 81 176 128 b 332 325 176 299 272 317 b 533 371 483 344 514 356 b 533 251 533 371 533 251 z m 386 953 b 478 824 386 953 478 824 b 589 824 478 824 589 824 b 451 1019 589 824 451 1019 b 322 1019 451 1019 322 1019 b 185 824 322 1019 185 824 b 294 824 185 824 294 824 b 386 953 294 824 386 953 z "},"ã":{"ha":772,"x_min":0,"x_max":0,"o":"m 199 506 b 365 646 207 561 226 646 b 536 528 481 646 536 604 b 472 442 536 456 501 444 b 271 417 472 442 271 417 b 50 189 68 392 50 250 b 278 -21 50 64 144 -21 b 540 97 419 -21 493 46 b 669 -14 544 42 561 -14 b 736 0 697 -14 715 -6 b 736 89 736 0 736 89 b 696 83 722 86 707 83 b 656 126 671 83 656 96 b 656 544 656 126 656 544 b 386 747 656 731 444 747 b 86 506 207 747 92 679 b 199 506 86 506 199 506 z m 533 251 b 308 81 533 154 422 81 b 176 207 217 81 176 128 b 332 325 176 299 272 317 b 533 371 483 344 514 356 b 533 251 533 371 533 251 z m 540 1003 b 471 939 535 976 526 939 b 406 957 460 939 432 946 b 375 969 406 957 375 969 b 281 990 346 981 317 990 b 136 842 188 990 147 924 b 203 842 136 842 203 842 b 268 903 214 878 231 903 b 353 882 285 903 304 899 b 389 869 353 882 389 869 b 471 851 426 857 446 851 b 610 1003 550 851 600 919 b 540 1003 610 1003 540 1003 z "},"ä":{"ha":772,"x_min":0,"x_max":0,"o":"m 199 506 b 365 646 207 561 226 646 b 536 528 481 646 536 604 b 472 442 536 456 501 444 b 271 417 472 442 271 417 b 50 189 68 392 50 250 b 278 -21 50 64 144 -21 b 540 97 419 -21 493 46 b 669 -14 544 42 561 -14 b 736 0 697 -14 715 -6 b 736 89 736 0 736 89 b 696 83 722 86 707 83 b 656 126 671 83 656 96 b 656 544 656 126 656 544 b 386 747 656 731 444 747 b 86 506 207 747 92 679 b 199 506 86 506 199 506 z m 533 251 b 308 81 533 154 422 81 b 176 207 217 81 176 128 b 332 325 176 299 272 317 b 533 371 483 344 514 356 b 533 251 533 371 533 251 z m 338 981 b 211 981 338 981 211 981 b 211 839 211 981 211 839 b 338 839 211 839 338 839 b 338 981 338 839 338 981 z m 563 981 b 436 981 563 981 436 981 b 436 839 436 981 436 839 b 563 839 436 839 563 839 b 563 981 563 839 563 981 z "},"å":{"ha":772,"x_min":0,"x_max":0,"o":"m 199 506 b 365 646 207 561 226 646 b 536 528 481 646 536 604 b 472 442 536 456 501 444 b 271 417 472 442 271 417 b 50 189 68 392 50 250 b 278 -21 50 64 144 -21 b 540 97 419 -21 493 46 b 669 -14 544 42 561 -14 b 736 0 697 -14 715 -6 b 736 89 736 0 736 89 b 696 83 722 86 707 83 b 656 126 671 83 656 96 b 656 544 656 126 656 544 b 386 747 656 731 444 747 b 86 506 207 747 92 679 b 199 506 86 506 199 506 z m 533 251 b 308 81 533 154 422 81 b 176 207 217 81 176 128 b 332 325 176 299 272 317 b 533 371 483 344 514 356 b 533 251 533 371 533 251 z m 388 1050 b 260 922 314 1050 260 996 b 388 794 260 849 314 794 b 515 922 461 794 515 849 b 388 1050 515 996 461 1050 z m 315 922 b 388 994 315 963 347 994 b 460 922 428 994 460 963 b 388 850 460 882 428 850 b 315 922 347 850 315 882 z "},"æ":{"ha":1235,"x_min":0,"x_max":0,"o":"m 646 421 b 847 638 646 533 735 638 b 1050 421 996 638 1043 533 b 646 421 1050 421 646 421 z m 1044 228 b 857 85 1040 174 972 85 b 646 324 717 85 646 172 b 1176 324 646 324 1176 324 b 864 747 1176 581 1074 747 b 622 644 718 747 663 683 b 386 747 571 699 525 747 b 86 506 207 747 92 679 b 199 506 86 506 199 506 b 365 646 207 561 226 646 b 536 528 481 646 536 604 b 472 442 536 456 501 444 b 271 417 472 442 271 417 b 50 189 68 392 50 250 b 278 -21 50 64 144 -21 b 574 131 408 -21 503 24 b 840 -21 601 81 667 -21 b 1038 29 957 -21 1004 7 b 1167 228 1129 90 1163 193 b 1044 228 1167 228 1044 228 z m 533 251 b 308 81 533 154 422 81 b 176 207 217 81 176 128 b 332 325 176 299 272 317 b 533 371 483 344 514 356 b 533 251 533 371 533 251 z "},"ç":{"ha":694,"x_min":0,"x_max":0,"o":"m 663 482 b 390 747 653 608 581 747 b 42 343 150 747 42 568 b 367 -21 42 133 163 -21 b 663 257 579 -21 650 142 b 544 257 663 257 544 257 b 371 85 524 146 453 85 b 172 364 203 85 172 239 b 372 638 172 493 221 638 b 544 482 475 638 529 579 b 663 482 544 482 663 482 z m 226 -119 b 250 -146 226 -119 250 -146 b 304 -135 279 -137 292 -135 b 371 -189 324 -135 371 -146 b 293 -247 371 -240 319 -247 b 203 -226 258 -247 238 -240 b 179 -282 203 -226 179 -282 b 313 -312 215 -297 261 -312 b 476 -185 415 -312 476 -257 b 360 -81 476 -140 450 -81 b 317 -86 342 -81 332 -83 b 381 0 317 -86 381 0 b 315 0 381 0 315 0 b 226 -119 315 0 226 -119 z "},"è":{"ha":772,"x_min":0,"x_max":0,"o":"m 585 228 b 397 85 581 174 513 85 b 186 324 257 85 186 172 b 717 324 186 324 717 324 b 404 747 717 581 614 747 b 56 343 164 747 56 568 b 381 -21 56 133 176 -21 b 578 29 497 -21 544 7 b 707 228 669 90 703 193 b 585 228 707 228 585 228 z m 186 421 b 388 638 186 533 275 638 b 590 421 536 638 583 533 b 186 421 590 421 186 421 z m 356 824 b 449 824 356 824 449 824 b 325 1019 449 824 325 1019 b 175 1019 325 1019 175 1019 b 356 824 175 1019 356 824 z "},"é":{"ha":772,"x_min":0,"x_max":0,"o":"m 585 228 b 397 85 581 174 513 85 b 186 324 257 85 186 172 b 717 324 186 324 717 324 b 404 747 717 581 614 747 b 56 343 164 747 56 568 b 381 -21 56 133 176 -21 b 578 29 497 -21 544 7 b 707 228 669 90 703 193 b 585 228 707 228 585 228 z m 186 421 b 388 638 186 533 275 638 b 590 421 536 638 583 533 b 186 421 590 421 186 421 z m 599 1019 b 449 1019 599 1019 449 1019 b 325 824 449 1019 325 824 b 418 824 325 824 418 824 b 599 1019 418 824 599 1019 z "},"ê":{"ha":772,"x_min":0,"x_max":0,"o":"m 585 228 b 397 85 581 174 513 85 b 186 324 257 85 186 172 b 717 324 186 324 717 324 b 404 747 717 581 614 747 b 56 343 164 747 56 568 b 381 -21 56 133 176 -21 b 578 29 497 -21 544 7 b 707 228 669 90 703 193 b 585 228 707 228 585 228 z m 186 421 b 388 638 186 533 275 638 b 590 421 536 638 583 533 b 186 421 590 421 186 421 z m 386 953 b 478 824 386 953 478 824 b 589 824 478 824 589 824 b 451 1019 589 824 451 1019 b 322 1019 451 1019 322 1019 b 185 824 322 1019 185 824 b 294 824 185 824 294 824 b 386 953 294 824 386 953 z "},"ë":{"ha":772,"x_min":0,"x_max":0,"o":"m 585 228 b 397 85 581 174 513 85 b 186 324 257 85 186 172 b 717 324 186 324 717 324 b 404 747 717 581 614 747 b 56 343 164 747 56 568 b 381 -21 56 133 176 -21 b 578 29 497 -21 544 7 b 707 228 669 90 703 193 b 585 228 707 228 585 228 z m 186 421 b 388 638 186 533 275 638 b 590 421 536 638 583 533 b 186 421 590 421 186 421 z m 338 981 b 211 981 338 981 211 981 b 211 839 211 981 211 839 b 338 839 211 839 338 839 b 338 981 338 839 338 981 z m 563 981 b 436 981 563 981 436 981 b 436 839 436 981 436 839 b 563 839 436 839 563 839 b 563 981 563 839 563 981 z "},"ì":{"ha":386,"x_min":0,"x_max":0,"o":"m 254 726 b 132 726 254 726 132 726 b 132 0 132 726 132 0 b 254 0 132 0 254 0 b 254 726 254 0 254 726 z m 163 824 b 256 824 163 824 256 824 b 132 1019 256 824 132 1019 b -18 1019 132 1019 -18 1019 b 163 824 -18 1019 163 824 z "},"í":{"ha":386,"x_min":0,"x_max":0,"o":"m 254 726 b 132 726 254 726 132 726 b 132 0 132 726 132 0 b 254 0 132 0 254 0 b 254 726 254 0 254 726 z m 406 1019 b 256 1019 406 1019 256 1019 b 132 824 256 1019 132 824 b 225 824 132 824 225 824 b 406 1019 225 824 406 1019 z "},"î":{"ha":386,"x_min":0,"x_max":0,"o":"m 254 726 b 132 726 254 726 132 726 b 132 0 132 726 132 0 b 254 0 132 0 254 0 b 254 726 254 0 254 726 z m 193 953 b 285 824 193 953 285 824 b 396 824 285 824 396 824 b 258 1019 396 824 258 1019 b 129 1019 258 1019 129 1019 b -8 824 129 1019 -8 824 b 101 824 -8 824 101 824 b 193 953 101 824 193 953 z "},"ï":{"ha":386,"x_min":0,"x_max":0,"o":"m 254 726 b 132 726 254 726 132 726 b 132 0 132 726 132 0 b 254 0 132 0 254 0 b 254 726 254 0 254 726 z m 144 981 b 18 981 144 981 18 981 b 18 839 18 981 18 839 b 144 839 18 839 144 839 b 144 981 144 839 144 981 z m 369 981 b 243 981 369 981 243 981 b 243 839 243 981 243 839 b 369 839 243 839 369 839 b 369 981 369 839 369 981 z "},"ð":{"ha":772,"x_min":0,"x_max":0,"o":"m 175 353 b 386 621 175 429 208 621 b 597 353 564 621 597 429 b 386 85 597 276 564 85 b 175 353 208 85 175 276 z m 651 968 b 586 1024 651 968 586 1024 b 439 953 586 1024 439 953 b 313 1024 401 982 358 1006 b 210 974 313 1024 210 974 b 333 901 253 956 296 931 b 169 822 333 901 169 822 b 228 764 169 822 228 764 b 400 850 228 764 400 850 b 554 653 458 803 522 732 b 551 650 554 653 551 650 b 367 726 486 721 413 726 b 49 353 160 726 49 536 b 397 -21 49 169 154 -21 b 725 414 540 -21 725 81 b 503 897 725 592 644 767 b 651 968 503 897 651 968 z "},"ñ":{"ha":772,"x_min":0,"x_max":0,"o":"m 682 494 b 428 747 682 701 540 747 b 208 624 303 747 235 663 b 206 624 208 624 206 624 b 206 726 206 624 206 726 b 90 726 206 726 90 726 b 90 0 90 726 90 0 b 213 0 90 0 213 0 b 213 396 213 0 213 396 b 404 638 213 593 335 638 b 560 447 524 638 560 574 b 560 0 560 447 560 0 b 682 0 560 0 682 0 b 682 494 682 0 682 494 z m 540 1003 b 471 939 535 976 526 939 b 406 957 460 939 432 946 b 375 969 406 957 375 969 b 281 990 346 981 317 990 b 136 842 188 990 147 924 b 203 842 136 842 203 842 b 268 903 214 878 231 903 b 353 882 285 903 304 899 b 389 869 353 882 389 869 b 471 851 426 857 446 851 b 610 1003 550 851 600 919 b 540 1003 610 1003 540 1003 z "},"ò":{"ha":772,"x_min":0,"x_max":0,"o":"m 49 364 b 386 -19 49 176 154 -19 b 724 364 618 -19 724 176 b 386 747 724 551 618 747 b 49 364 154 747 49 551 z m 175 364 b 386 642 175 461 211 642 b 597 364 561 642 597 461 b 386 86 597 267 561 86 b 175 364 211 86 175 267 z m 356 824 b 449 824 356 824 449 824 b 325 1019 449 824 325 1019 b 175 1019 325 1019 175 1019 b 356 824 175 1019 356 824 z "},"ó":{"ha":772,"x_min":0,"x_max":0,"o":"m 49 364 b 386 -19 49 176 154 -19 b 724 364 618 -19 724 176 b 386 747 724 551 618 747 b 49 364 154 747 49 551 z m 175 364 b 386 642 175 461 211 642 b 597 364 561 642 597 461 b 386 86 597 267 561 86 b 175 364 211 86 175 267 z m 599 1019 b 449 1019 599 1019 449 1019 b 325 824 449 1019 325 824 b 418 824 325 824 418 824 b 599 1019 418 824 599 1019 z "},"ô":{"ha":772,"x_min":0,"x_max":0,"o":"m 49 364 b 386 -19 49 176 154 -19 b 724 364 618 -19 724 176 b 386 747 724 551 618 747 b 49 364 154 747 49 551 z m 175 364 b 386 642 175 461 211 642 b 597 364 561 642 597 461 b 386 86 597 267 561 86 b 175 364 211 86 175 267 z m 386 953 b 478 824 386 953 478 824 b 589 824 478 824 589 824 b 451 1019 589 824 451 1019 b 322 1019 451 1019 322 1019 b 185 824 322 1019 185 824 b 294 824 185 824 294 824 b 386 953 294 824 386 953 z "},"õ":{"ha":772,"x_min":0,"x_max":0,"o":"m 49 364 b 386 -19 49 176 154 -19 b 724 364 618 -19 724 176 b 386 747 724 551 618 747 b 49 364 154 747 49 551 z m 175 364 b 386 642 175 461 211 642 b 597 364 561 642 597 461 b 386 86 597 267 561 86 b 175 364 211 86 175 267 z m 554 1003 b 485 939 549 976 540 939 b 419 957 474 939 446 946 b 389 969 419 957 389 969 b 294 990 360 981 331 990 b 150 842 201 990 161 924 b 217 842 150 842 217 842 b 282 903 228 878 244 903 b 367 882 299 903 318 899 b 403 869 367 882 403 869 b 485 851 440 857 460 851 b 624 1003 564 851 614 919 b 554 1003 624 1003 554 1003 z "},"ö":{"ha":772,"x_min":0,"x_max":0,"o":"m 49 364 b 386 -19 49 176 154 -19 b 724 364 618 -19 724 176 b 386 747 724 551 618 747 b 49 364 154 747 49 551 z m 175 364 b 386 642 175 461 211 642 b 597 364 561 642 597 461 b 386 86 597 267 561 86 b 175 364 211 86 175 267 z m 338 981 b 211 981 338 981 211 981 b 211 839 211 981 211 839 b 338 839 211 839 338 839 b 338 981 338 839 338 981 z m 563 981 b 436 981 563 981 436 981 b 436 839 436 981 436 839 b 563 839 436 839 563 839 b 563 981 563 839 563 981 z "},"÷":{"ha":811,"x_min":0,"x_max":0,"o":"m 757 300 b 757 401 757 300 757 401 b 54 401 757 401 54 401 b 54 300 54 401 54 300 b 757 300 54 300 757 300 z m 311 633 b 406 539 311 582 356 539 b 500 633 457 539 500 586 b 406 728 500 685 457 728 b 311 633 356 728 311 686 z m 311 68 b 406 -26 311 17 356 -26 b 500 68 457 -26 500 21 b 406 163 500 119 457 163 b 311 68 356 163 311 121 z "},"ø":{"ha":849,"x_min":0,"x_max":0,"o":"m 746 721 b 703 757 746 721 703 757 b 614 657 703 757 614 657 b 386 747 560 713 485 747 b 49 364 154 747 49 551 b 128 106 49 271 75 176 b 39 6 128 106 39 6 b 82 -31 39 6 82 -31 b 165 64 82 -31 165 64 b 386 -19 218 13 292 -19 b 724 364 618 -19 724 176 b 650 613 724 453 700 543 b 746 721 650 613 746 721 z m 210 199 b 175 364 183 254 175 318 b 386 642 175 461 211 642 b 538 569 457 642 506 611 b 210 199 538 569 210 199 z m 567 518 b 597 364 590 467 597 407 b 386 86 597 267 561 86 b 242 150 319 86 272 113 b 567 518 242 150 567 518 z "},"ù":{"ha":772,"x_min":0,"x_max":0,"o":"m 679 0 b 679 726 679 0 679 726 b 557 726 679 726 557 726 b 557 326 557 726 557 326 b 357 85 557 221 511 85 b 217 244 278 85 217 125 b 217 726 217 244 217 726 b 94 726 217 726 94 726 b 94 204 94 726 94 204 b 331 -21 94 31 224 -21 b 561 108 447 -21 510 24 b 564 106 561 108 564 106 b 564 0 564 106 564 0 b 679 0 564 0 679 0 z m 356 824 b 449 824 356 824 449 824 b 325 1019 449 824 325 1019 b 175 1019 325 1019 175 1019 b 356 824 175 1019 356 824 z "},"ú":{"ha":772,"x_min":0,"x_max":0,"o":"m 679 0 b 679 726 679 0 679 726 b 557 726 679 726 557 726 b 557 326 557 726 557 326 b 357 85 557 221 511 85 b 217 244 278 85 217 125 b 217 726 217 244 217 726 b 94 726 217 726 94 726 b 94 204 94 726 94 204 b 331 -21 94 31 224 -21 b 561 108 447 -21 510 24 b 564 106 561 108 564 106 b 564 0 564 106 564 0 b 679 0 564 0 679 0 z m 599 1019 b 449 1019 599 1019 449 1019 b 325 824 449 1019 325 824 b 418 824 325 824 418 824 b 599 1019 418 824 599 1019 z "},"û":{"ha":772,"x_min":0,"x_max":0,"o":"m 679 0 b 679 726 679 0 679 726 b 557 726 679 726 557 726 b 557 326 557 726 557 326 b 357 85 557 221 511 85 b 217 244 278 85 217 125 b 217 726 217 244 217 726 b 94 726 217 726 94 726 b 94 204 94 726 94 204 b 331 -21 94 31 224 -21 b 561 108 447 -21 510 24 b 564 106 561 108 564 106 b 564 0 564 106 564 0 b 679 0 564 0 679 0 z m 386 953 b 478 824 386 953 478 824 b 589 824 478 824 589 824 b 451 1019 589 824 451 1019 b 322 1019 451 1019 322 1019 b 185 824 322 1019 185 824 b 294 824 185 824 294 824 b 386 953 294 824 386 953 z "},"ü":{"ha":772,"x_min":0,"x_max":0,"o":"m 679 0 b 679 726 679 0 679 726 b 557 726 679 726 557 726 b 557 326 557 726 557 326 b 357 85 557 221 511 85 b 217 244 278 85 217 125 b 217 726 217 244 217 726 b 94 726 217 726 94 726 b 94 204 94 726 94 204 b 331 -21 94 31 224 -21 b 561 108 447 -21 510 24 b 564 106 561 108 564 106 b 564 0 564 106 564 0 b 679 0 564 0 679 0 z m 338 981 b 211 981 338 981 211 981 b 211 839 211 981 211 839 b 338 839 211 839 338 839 b 338 981 338 839 338 981 z m 563 981 b 436 981 563 981 436 981 b 436 839 436 981 436 839 b 563 839 436 839 563 839 b 563 981 563 839 563 981 z "},"ý":{"ha":694,"x_min":0,"x_max":0,"o":"m 350 135 b 347 135 350 135 347 135 b 154 726 347 135 154 726 b 15 726 154 726 15 726 b 285 -19 15 726 285 -19 b 156 -187 226 -169 219 -187 b 82 -175 122 -187 97 -181 b 82 -286 82 -175 82 -286 b 133 -297 101 -292 115 -297 b 418 14 290 -297 303 -281 b 679 726 511 251 594 489 b 544 726 679 726 544 726 b 350 135 544 726 350 135 z m 560 1019 b 410 1019 560 1019 410 1019 b 286 824 410 1019 286 824 b 379 824 286 824 379 824 b 560 1019 379 824 560 1019 z "},"þ":{"ha":772,"x_min":0,"x_max":0,"o":"m 197 329 b 393 638 197 447 217 638 b 592 365 582 638 592 458 b 396 85 592 206 529 85 b 197 329 318 85 197 136 z m 81 -287 b 203 -287 81 -287 203 -287 b 203 76 203 -287 203 76 b 206 76 203 76 206 76 b 399 -21 238 25 301 -21 b 718 385 646 -21 718 211 b 415 747 718 589 608 747 b 206 626 283 747 231 665 b 203 626 206 626 203 626 b 203 997 203 626 203 997 b 81 997 203 997 81 997 b 81 -287 81 997 81 -287 z "},"ÿ":{"ha":694,"x_min":0,"x_max":0,"o":"m 350 135 b 347 135 350 135 347 135 b 154 726 347 135 154 726 b 15 726 154 726 15 726 b 285 -19 15 726 285 -19 b 156 -187 226 -169 219 -187 b 82 -175 122 -187 97 -181 b 82 -286 82 -175 82 -286 b 133 -297 101 -292 115 -297 b 418 14 290 -297 303 -281 b 679 726 511 251 594 489 b 544 726 679 726 544 726 b 350 135 544 726 350 135 z m 299 981 b 172 981 299 981 172 981 b 172 839 172 981 172 839 b 299 839 172 839 299 839 b 299 981 299 839 299 981 z m 524 981 b 397 981 524 981 397 981 b 397 839 397 981 397 839 b 524 839 397 839 524 839 b 524 981 524 839 524 981 z "},"ı":{"ha":386,"x_min":0,"x_max":0,"o":"m 254 726 b 132 726 254 726 132 726 b 132 0 132 726 132 0 b 254 0 132 0 254 0 b 254 726 254 0 254 726 z "},"Ł":{"ha":772,"x_min":0,"x_max":0,"o":"m 404 722 b 240 629 404 722 240 629 b 240 997 240 629 240 997 b 106 997 240 997 106 997 b 106 558 106 997 106 558 b -28 482 106 558 -28 482 b -28 401 -28 482 -28 401 b 106 478 -28 401 106 478 b 106 0 106 478 106 0 b 746 0 106 0 746 0 b 746 119 746 0 746 119 b 240 119 746 119 240 119 b 240 549 240 119 240 549 b 404 642 240 549 404 642 b 404 722 404 642 404 722 z "},"ł":{"ha":308,"x_min":0,"x_max":0,"o":"m 336 604 b 336 685 336 604 336 685 b 215 615 336 685 215 615 b 215 997 215 615 215 997 b 93 997 215 997 93 997 b 93 551 93 997 93 551 b -28 482 93 551 -28 482 b -28 401 -28 482 -28 401 b 93 471 -28 401 93 471 b 93 0 93 471 93 0 b 215 0 93 0 215 0 b 215 535 215 0 215 535 b 336 604 215 535 336 604 z "},"Œ":{"ha":1389,"x_min":0,"x_max":0,"o":"m 718 319 b 496 89 718 151 586 89 b 224 263 340 89 271 147 b 189 471 200 322 189 390 b 478 908 189 606 210 908 b 718 683 618 908 718 822 b 718 319 718 683 718 319 z m 726 896 b 724 896 726 896 724 896 b 476 1024 703 931 642 1024 b 50 493 128 1024 50 688 b 457 -26 50 194 194 -26 b 722 104 624 -26 676 44 b 725 104 722 104 725 104 b 725 0 725 104 725 0 b 1340 0 725 0 1340 0 b 1340 119 1340 0 1340 119 b 853 119 1340 119 853 119 b 853 453 853 119 853 453 b 1315 453 853 453 1315 453 b 1315 572 1315 453 1315 572 b 853 572 1315 572 853 572 b 853 878 853 572 853 878 b 1338 878 853 878 1338 878 b 1338 997 1338 878 1338 997 b 726 997 1338 997 726 997 b 726 896 726 997 726 896 z "},"œ":{"ha":1311,"x_min":0,"x_max":0,"o":"m 721 421 b 924 638 721 533 811 638 b 1126 421 1072 638 1119 533 b 721 421 1126 421 721 421 z m 1121 228 b 933 85 1117 174 1049 85 b 721 324 793 85 721 172 b 1253 324 721 324 1253 324 b 940 747 1253 581 1150 747 b 658 600 814 747 726 704 b 386 747 599 699 501 746 b 49 364 154 747 49 551 b 386 -19 49 176 154 -19 b 647 119 442 -21 581 -10 b 917 -21 715 19 814 -21 b 1114 29 1033 -21 1081 7 b 1243 228 1206 90 1239 193 b 1121 228 1243 228 1121 228 z m 175 364 b 386 642 175 461 211 642 b 597 364 561 642 597 461 b 386 86 597 267 561 86 b 175 364 211 86 175 267 z "},"Š":{"ha":926,"x_min":0,"x_max":0,"o":"m 833 706 b 444 1024 828 815 793 1024 b 101 715 203 1024 101 871 b 314 481 101 542 249 496 b 518 433 314 481 518 433 b 731 257 682 394 731 361 b 469 89 731 114 567 89 b 194 322 342 89 194 142 b 68 322 194 322 68 322 b 169 69 68 229 85 146 b 471 -26 214 29 286 -26 b 861 275 642 -26 861 39 b 635 542 861 433 764 511 b 350 607 635 542 350 607 b 232 733 292 621 232 649 b 460 908 232 885 375 908 b 707 706 572 908 700 860 b 833 706 707 706 833 706 z m 371 1290 b 261 1290 371 1290 261 1290 b 399 1094 261 1290 399 1094 b 528 1094 399 1094 528 1094 b 665 1290 528 1094 665 1290 b 554 1290 665 1290 554 1290 b 463 1161 554 1290 463 1161 b 371 1290 463 1161 371 1290 z "},"š":{"ha":694,"x_min":0,"x_max":0,"o":"m 621 519 b 343 747 621 556 603 747 b 68 515 200 747 68 675 b 236 339 68 415 135 364 b 378 304 236 339 378 304 b 522 200 482 278 522 258 b 356 85 522 119 443 85 b 163 233 183 85 167 176 b 44 233 163 233 44 233 b 357 -21 49 146 69 -21 b 644 219 521 -21 644 69 b 440 411 644 318 592 374 b 318 442 440 411 318 442 b 186 539 224 465 186 479 b 331 642 186 629 293 642 b 503 519 485 642 501 565 b 621 519 503 519 621 519 z m 256 1019 b 146 1019 256 1019 146 1019 b 283 824 146 1019 283 824 b 413 824 283 824 413 824 b 550 1019 413 824 550 1019 b 439 1019 550 1019 439 1019 b 347 890 439 1019 347 890 b 256 1019 347 890 256 1019 z "},"Ÿ":{"ha":926,"x_min":0,"x_max":0,"o":"m 531 401 b 907 997 531 401 907 997 b 749 997 907 997 749 997 b 463 518 749 997 463 518 b 176 997 463 518 176 997 b 19 997 176 997 19 997 b 396 401 19 997 396 401 b 396 0 396 401 396 0 b 531 0 396 0 531 0 b 531 401 531 0 531 401 z m 414 1251 b 288 1251 414 1251 288 1251 b 288 1110 288 1251 288 1110 b 414 1110 288 1110 414 1110 b 414 1251 414 1110 414 1251 z m 639 1251 b 513 1251 639 1251 513 1251 b 513 1110 513 1251 513 1110 b 639 1110 513 1110 639 1110 b 639 1251 639 1110 639 1251 z "},"Ž":{"ha":849,"x_min":0,"x_max":0,"o":"m 817 119 b 203 119 817 119 203 119 b 817 881 203 119 817 881 b 817 997 817 881 817 997 b 78 997 817 997 78 997 b 78 878 78 997 78 878 b 643 878 78 878 643 878 b 32 113 643 878 32 113 b 32 0 32 113 32 0 b 817 0 32 0 817 0 b 817 119 817 0 817 119 z m 332 1290 b 222 1290 332 1290 222 1290 b 360 1094 222 1290 360 1094 b 489 1094 360 1094 489 1094 b 626 1290 489 1094 626 1290 b 515 1290 626 1290 515 1290 b 424 1161 515 1290 424 1161 b 332 1290 424 1161 332 1290 z "},"ž":{"ha":694,"x_min":0,"x_max":0,"o":"m 639 626 b 639 726 639 626 639 726 b 76 726 639 726 76 726 b 76 625 76 726 76 625 b 481 625 76 625 481 625 b 43 96 481 625 43 96 b 43 0 43 96 43 0 b 651 0 43 0 651 0 b 651 101 651 0 651 101 b 206 101 651 101 206 101 b 639 626 206 101 639 626 z m 256 1019 b 146 1019 256 1019 146 1019 b 283 824 146 1019 283 824 b 413 824 283 824 413 824 b 550 1019 413 824 550 1019 b 439 1019 550 1019 439 1019 b 347 890 439 1019 347 890 b 256 1019 347 890 256 1019 z "},"ƒ":{"ha":772,"x_min":0,"x_max":0,"o":"m 696 1003 b 588 1024 667 1014 644 1024 b 368 813 467 1024 390 911 b 329 640 368 813 329 640 b 158 640 329 640 158 640 b 158 543 158 640 158 543 b 310 543 158 543 310 543 b 221 64 310 543 221 64 b 76 -178 193 -86 168 -178 b 6 -158 47 -178 25 -168 b -15 -271 6 -158 -15 -271 b 71 -287 6 -281 22 -287 b 354 89 204 -287 303 -193 b 438 543 354 89 438 543 b 614 543 438 543 614 543 b 614 640 614 543 614 640 b 456 640 614 640 456 640 b 483 783 456 640 483 783 b 596 918 494 836 522 918 b 675 894 622 918 644 907 b 696 1003 675 894 696 1003 z "},"ˆ":{"ha":463,"x_min":0,"x_max":0,"o":"m 231 953 b 322 824 231 953 322 824 b 433 824 322 824 433 824 b 296 1019 433 824 296 1019 b 167 1019 296 1019 167 1019 b 29 824 167 1019 29 824 b 139 824 29 824 139 824 b 231 953 139 824 231 953 z "},"ˇ":{"ha":463,"x_min":0,"x_max":0,"o":"m 139 1019 b 29 1019 139 1019 29 1019 b 167 824 29 1019 167 824 b 296 824 167 824 296 824 b 433 1019 296 824 433 1019 b 322 1019 433 1019 322 1019 b 231 890 322 1019 231 890 b 139 1019 231 890 139 1019 z "},"˘":{"ha":463,"x_min":0,"x_max":0,"o":"m 379 1015 b 236 906 367 972 347 906 b 119 949 176 906 140 925 b 86 1015 99 971 92 999 b 18 1015 86 1015 18 1015 b 225 826 24 967 42 826 b 446 1015 344 826 431 879 b 379 1015 446 1015 379 1015 z "},"˙":{"ha":463,"x_min":0,"x_max":0,"o":"m 294 981 b 168 981 294 981 168 981 b 168 839 168 981 168 839 b 294 839 168 839 294 839 b 294 981 294 839 294 981 z "},"˚":{"ha":463,"x_min":0,"x_max":0,"o":"m 232 1050 b 104 922 158 1050 104 996 b 232 794 104 849 158 794 b 360 922 306 794 360 849 b 232 1050 360 996 306 1050 z m 160 922 b 232 994 160 963 192 994 b 304 922 272 994 304 963 b 232 850 304 882 272 850 b 160 922 192 850 160 882 z "},"˛":{"ha":463,"x_min":0,"x_max":0,"o":"m 375 -226 b 285 -247 340 -240 319 -247 b 207 -178 258 -247 207 -240 b 346 -6 207 -108 232 -68 b 346 0 346 -6 346 0 b 253 0 346 0 253 0 b 101 -185 122 -36 101 -140 b 265 -312 101 -257 163 -312 b 399 -282 324 -312 379 -290 b 375 -226 399 -282 375 -226 z "},"˜":{"ha":463,"x_min":0,"x_max":0,"o":"m 399 1003 b 329 939 393 976 385 939 b 264 957 318 939 290 946 b 233 969 264 957 233 969 b 139 990 204 981 175 990 b -6 842 46 990 6 924 b 61 842 -6 842 61 842 b 126 903 72 878 89 903 b 211 882 143 903 163 899 b 247 869 211 882 247 869 b 329 851 285 857 304 851 b 468 1003 408 851 458 919 b 399 1003 468 1003 399 1003 z "},"˝":{"ha":463,"x_min":0,"x_max":0,"o":"m 318 1019 b 167 1019 318 1019 167 1019 b 43 824 167 1019 43 824 b 136 824 43 824 136 824 b 318 1019 136 824 318 1019 z m 568 1019 b 417 1019 568 1019 417 1019 b 293 824 417 1019 293 824 b 386 824 293 824 386 824 b 568 1019 386 824 568 1019 z "},"–":{"ha":772,"x_min":0,"x_max":0,"o":"m 772 435 b 0 435 772 435 0 435 b 0 333 0 435 0 333 b 772 333 0 333 772 333 b 772 435 772 333 772 435 z "},"—":{"ha":1389,"x_min":0,"x_max":0,"o":"m 1389 435 b 0 435 1389 435 0 435 b 0 333 0 435 0 333 b 1389 333 0 333 1389 333 b 1389 435 1389 333 1389 435 z "},"‘":{"ha":308,"x_min":0,"x_max":0,"o":"m 235 800 b 161 800 235 800 161 800 b 235 942 161 847 163 931 b 235 1007 235 942 235 1007 b 90 789 122 981 90 896 b 90 653 90 789 90 653 b 235 653 90 653 235 653 b 235 800 235 653 235 800 z "},"’":{"ha":308,"x_min":0,"x_max":0,"o":"m 74 850 b 147 850 74 850 147 850 b 74 708 147 803 146 719 b 74 643 74 708 74 643 b 218 861 186 669 218 754 b 218 997 218 861 218 997 b 74 997 218 997 74 997 b 74 850 74 997 74 850 z "},"‚":{"ha":308,"x_min":0,"x_max":0,"o":"m 74 0 b 147 0 74 0 147 0 b 74 -142 147 -47 146 -131 b 74 -207 74 -142 74 -207 b 218 11 186 -181 218 -96 b 218 147 218 11 218 147 b 74 147 218 147 74 147 b 74 0 74 147 74 0 z "},"“":{"ha":463,"x_min":0,"x_max":0,"o":"m 426 800 b 353 800 426 800 353 800 b 426 942 353 847 354 931 b 426 1007 426 942 426 1007 b 282 789 314 981 282 896 b 282 653 282 789 282 653 b 426 653 282 653 426 653 b 426 800 426 653 426 800 z m 197 800 b 124 800 197 800 124 800 b 197 942 124 847 125 931 b 197 1007 197 942 197 1007 b 53 789 85 981 53 896 b 53 653 53 789 53 653 b 197 653 53 653 197 653 b 197 800 197 653 197 800 z "},"”":{"ha":463,"x_min":0,"x_max":0,"o":"m 36 850 b 110 850 36 850 110 850 b 36 708 110 803 108 719 b 36 643 36 708 36 643 b 181 861 149 669 181 754 b 181 997 181 861 181 997 b 36 997 181 997 36 997 b 36 850 36 997 36 850 z m 265 850 b 339 850 265 850 339 850 b 265 708 339 803 338 719 b 265 643 265 708 265 643 b 410 861 378 669 410 754 b 410 997 410 861 410 997 b 265 997 410 997 265 997 b 265 850 265 997 265 850 z "},"„":{"ha":463,"x_min":0,"x_max":0,"o":"m 36 0 b 110 0 36 0 110 0 b 36 -142 110 -47 108 -131 b 36 -207 36 -142 36 -207 b 181 11 149 -181 181 -96 b 181 147 181 11 181 147 b 36 147 181 147 36 147 b 36 0 36 147 36 0 z m 265 0 b 339 0 265 0 339 0 b 265 -142 339 -47 338 -131 b 265 -207 265 -142 265 -207 b 410 11 378 -181 410 -96 b 410 147 410 11 410 147 b 265 147 410 147 265 147 b 265 0 265 147 265 0 z "},"†":{"ha":772,"x_min":0,"x_max":0,"o":"m 453 599 b 714 599 453 599 714 599 b 714 704 714 599 714 704 b 453 704 714 704 453 704 b 453 997 453 704 453 997 b 322 997 453 997 322 997 b 322 704 322 997 322 704 b 60 704 322 704 60 704 b 60 599 60 704 60 599 b 322 599 60 599 322 599 b 322 -221 322 599 322 -221 b 453 -221 322 -221 453 -221 b 453 599 453 -221 453 599 z "},"‡":{"ha":772,"x_min":0,"x_max":0,"o":"m 453 610 b 714 610 453 610 714 610 b 714 715 714 610 714 715 b 453 715 714 715 453 715 b 453 997 453 715 453 997 b 322 997 453 997 322 997 b 322 715 322 997 322 715 b 60 715 322 715 60 715 b 60 610 60 715 60 610 b 322 610 60 610 322 610 b 322 165 322 610 322 165 b 60 165 322 165 60 165 b 60 60 60 165 60 60 b 322 60 60 60 322 60 b 322 -221 322 60 322 -221 b 453 -221 322 -221 453 -221 b 453 60 453 -221 453 60 b 714 60 453 60 714 60 b 714 165 714 60 714 165 b 453 165 714 165 453 165 b 453 610 453 165 453 610 z "},"•":{"ha":486,"x_min":0,"x_max":0,"o":"m 463 499 b 243 718 463 619 364 718 b 25 499 121 718 25 619 b 243 281 25 376 122 281 b 463 499 364 281 463 378 z "},"…":{"ha":1389,"x_min":0,"x_max":0,"o":"m 304 147 b 160 147 304 147 160 147 b 160 0 160 147 160 0 b 304 0 160 0 304 0 b 304 147 304 0 304 147 z m 767 147 b 622 147 767 147 622 147 b 622 0 622 147 622 0 b 767 0 622 0 767 0 b 767 147 767 0 767 147 z m 1229 147 b 1085 147 1229 147 1085 147 b 1085 0 1085 147 1085 0 b 1229 0 1085 0 1229 0 b 1229 147 1229 0 1229 147 z "},"‰":{"ha":1389,"x_min":0,"x_max":0,"o":"m 10 749 b 226 532 10 626 107 532 b 443 749 347 532 443 629 b 226 965 443 868 346 965 b 10 749 107 965 10 869 z m 97 749 b 226 878 97 818 153 878 b 356 749 297 878 356 821 b 226 619 356 678 297 619 b 97 749 153 619 97 678 z m 443 207 b 660 -10 443 85 540 -10 b 876 207 781 -10 876 88 b 660 424 876 326 779 424 b 443 207 540 424 443 328 z m 531 207 b 660 336 531 276 586 336 b 789 207 731 336 789 279 b 660 78 789 136 731 78 b 531 207 586 78 531 136 z m 947 207 b 1164 -10 947 85 1044 -10 b 1381 207 1285 -10 1381 88 b 1164 424 1381 326 1283 424 b 947 207 1044 424 947 328 z m 1035 207 b 1164 336 1035 276 1090 336 b 1293 207 1235 336 1293 279 b 1164 78 1293 136 1235 78 b 1035 207 1090 78 1035 136 z m 756 976 b 679 976 756 976 679 976 b 128 -26 679 976 128 -26 b 204 -26 128 -26 204 -26 b 756 976 204 -26 756 976 z "},"‹":{"ha":463,"x_min":0,"x_max":0,"o":"m 340 272 b 194 385 340 272 194 385 b 340 497 194 385 340 497 b 340 619 340 497 340 619 b 122 449 340 619 122 449 b 122 321 122 449 122 321 b 340 150 122 321 340 150 b 340 272 340 150 340 272 z "},"›":{"ha":463,"x_min":0,"x_max":0,"o":"m 122 150 b 340 321 122 150 340 321 b 340 449 340 321 340 449 b 122 619 340 449 122 619 b 122 497 122 619 122 497 b 268 385 122 497 268 385 b 122 272 268 385 122 272 b 122 150 122 272 122 150 z "},"⁄":{"ha":232,"x_min":0,"x_max":0,"o":"m 463 976 b 383 976 463 976 383 976 b -231 -26 383 976 -231 -26 b -151 -26 -231 -26 -151 -26 b 463 976 -151 -26 463 976 z "},"™":{"ha":1389,"x_min":0,"x_max":0,"o":"m 774 997 b 618 997 774 997 618 997 b 618 425 618 997 618 425 b 719 425 618 425 719 425 b 719 890 719 425 719 890 b 722 890 719 890 722 890 b 901 425 722 890 901 425 b 971 425 901 425 971 425 b 1150 890 971 425 1150 890 b 1153 890 1150 890 1153 890 b 1153 425 1153 890 1153 425 b 1254 425 1153 425 1254 425 b 1254 997 1254 425 1254 997 b 1099 997 1254 997 1099 997 b 938 576 1099 997 938 576 b 774 997 938 576 774 997 z m 518 997 b 64 997 518 997 64 997 b 64 914 64 997 64 914 b 240 914 64 914 240 914 b 240 425 240 914 240 425 b 342 425 240 425 342 425 b 342 914 342 425 342 914 b 518 914 342 914 518 914 b 518 997 518 914 518 997 z "},"−":{"ha":811,"x_min":0,"x_max":0,"o":"m 757 300 b 757 401 757 300 757 401 b 54 401 757 401 54 401 b 54 300 54 401 54 300 b 757 300 54 300 757 300 z "},"ﬁ":{"ha":694,"x_min":0,"x_max":0,"o":"m 364 625 b 364 726 364 625 364 726 b 242 726 364 726 242 726 b 242 817 242 726 242 817 b 314 901 242 875 261 901 b 364 899 329 901 349 900 b 364 1008 364 899 364 1008 b 308 1011 344 1010 326 1011 b 119 851 189 1011 119 961 b 119 726 119 851 119 726 b 19 726 119 726 19 726 b 19 625 19 726 19 625 b 119 625 19 625 119 625 b 119 0 119 625 119 0 b 242 0 119 0 242 0 b 242 625 242 0 242 625 b 364 625 242 625 364 625 z m 603 726 b 481 726 603 726 481 726 b 481 0 481 726 481 0 b 603 0 481 0 603 0 b 603 726 603 0 603 726 z m 603 858 b 603 997 603 858 603 997 b 481 997 603 997 481 997 b 481 858 481 997 481 858 b 603 858 481 858 603 858 z "},"ﬂ":{"ha":694,"x_min":0,"x_max":0,"o":"m 364 625 b 364 726 364 625 364 726 b 242 726 364 726 242 726 b 242 817 242 726 242 817 b 314 901 242 875 261 901 b 364 899 329 901 349 900 b 364 1008 364 899 364 1008 b 308 1011 344 1010 326 1011 b 119 851 189 1011 119 961 b 119 726 119 851 119 726 b 19 726 119 726 19 726 b 19 625 19 726 19 625 b 119 625 19 625 119 625 b 119 0 119 625 119 0 b 242 0 119 0 242 0 b 242 625 242 0 242 625 b 364 625 242 625 364 625 z m 600 997 b 478 997 600 997 478 997 b 478 0 478 997 478 0 b 600 0 478 0 600 0 b 600 997 600 0 600 997 z "}}}
